<svg xmlns="http://www.w3.org/2000/svg" xmlns:v="https://svgstorm.com"
viewBox = "0 0 500 500"
width="500"
height="500">
<g fill="None" fill-opacity="0.0" stroke="#000000" stroke-opacity="0.00" stroke-width="0.3"><path d="
M 0.00 500.00 
L 500.00 500.00
L 500.00 0.00
L 0.00 0.00
L 0.00 500.00
M 272.00 112.00 
C 291.82 104.21 317.95 110.00 330.00 128.00
C 346.24 124.71 364.02 136.54 367.00 153.00
C 401.33 152.69 428.08 183.52 425.07 217.07 C 422.07 250.62 389.71 276.35 355.00 271.00
C 354.19 294.81 350.66 328.94 380.00 335.00
C 389.20 311.45 424.68 317.43 425.00 343.00 C 425.32 368.57 387.69 374.88 380.00 350.00
C 341.83 345.91 335.63 303.37 340.00 271.00
C 324.67 271.00 309.33 271.00 294.00 271.00
C 293.27 283.64 294.97 296.36 294.00 309.00 C 293.03 321.64 295.86 334.39 294.00 347.00 C 292.14 359.61 303.37 360.96 307.92 371.08 C 312.48 381.19 309.00 391.32 300.92 397.92 C 292.83 404.52 280.97 404.97 272.75 398.25 C 264.54 391.53 261.40 382.45 264.93 371.93 C 268.46 361.41 280.71 360.58 279.00 348.00 C 277.29 335.42 279.87 322.73 279.00 310.00 C 278.13 297.27 279.65 283.80 279.00 271.00
C 262.33 271.00 245.67 271.00 229.00 271.00
C 229.00 308.33 229.00 345.67 229.00 383.00
C 239.53 385.09 245.14 396.99 244.00 407.00 C 242.86 417.01 234.96 426.12 224.78 427.78 C 214.60 429.43 203.51 422.88 199.70 413.30 C 195.88 403.72 198.16 391.09 208.08 385.08 C 218.00 379.07 213.34 363.10 214.00 351.00 C 214.66 338.90 213.65 323.69 214.00 311.00 C 214.35 298.31 213.74 283.85 214.00 271.00
C 197.00 271.00 180.00 271.00 163.00 271.00
C 166.35 305.56 164.96 354.56 122.00 359.00
C 115.56 383.18 77.81 378.30 77.00 353.00 C 76.19 327.69 112.85 319.74 122.00 344.00
C 155.62 337.16 147.44 297.12 148.00 271.00
C 115.61 275.73 84.02 254.53 78.01 222.99 C 71.99 191.45 93.30 159.33 125.00 154.00
C 127.97 121.48 149.40 93.37 181.07 83.07 C 212.75 72.78 252.75 83.50 272.00 112.00 Z"/>
</g>
<g fill="None" fill-opacity="0.0" stroke="#FFFFFF" stroke-opacity="0.98" stroke-width="0.3"><path d="
M 272.00 112.00 
C 252.75 83.50 212.75 72.78 181.07 83.07 C 149.40 93.37 127.97 121.48 125.00 154.00
C 93.30 159.33 71.99 191.45 78.01 222.99 C 84.02 254.53 115.61 275.73 148.00 271.00
C 147.44 297.12 155.62 337.16 122.00 344.00
C 112.85 319.74 76.19 327.69 77.00 353.00 C 77.81 378.30 115.56 383.18 122.00 359.00
C 164.96 354.56 166.35 305.56 163.00 271.00
C 180.00 271.00 197.00 271.00 214.00 271.00
C 213.74 283.85 214.35 298.31 214.00 311.00 C 213.65 323.69 214.66 338.90 214.00 351.00 C 213.34 363.10 218.00 379.07 208.08 385.08 C 198.16 391.09 195.88 403.72 199.70 413.30 C 203.51 422.88 214.60 429.43 224.78 427.78 C 234.96 426.12 242.86 417.01 244.00 407.00 C 245.14 396.99 239.53 385.09 229.00 383.00
C 229.00 345.67 229.00 308.33 229.00 271.00
C 245.67 271.00 262.33 271.00 279.00 271.00
C 279.65 283.80 278.13 297.27 279.00 310.00 C 279.87 322.73 277.29 335.42 279.00 348.00 C 280.71 360.58 268.46 361.41 264.93 371.93 C 261.40 382.45 264.54 391.53 272.75 398.25 C 280.97 404.97 292.83 404.52 300.92 397.92 C 309.00 391.32 312.48 381.19 307.92 371.08 C 303.37 360.96 292.14 359.61 294.00 347.00 C 295.86 334.39 293.03 321.64 294.00 309.00 C 294.97 296.36 293.27 283.64 294.00 271.00
C 309.33 271.00 324.67 271.00 340.00 271.00
C 335.63 303.37 341.83 345.91 380.00 350.00
C 387.69 374.88 425.32 368.57 425.00 343.00 C 424.68 317.43 389.20 311.45 380.00 335.00
C 350.66 328.94 354.19 294.81 355.00 271.00
C 389.71 276.35 422.07 250.62 425.07 217.07 C 428.08 183.52 401.33 152.69 367.00 153.00
C 364.02 136.54 346.24 124.71 330.00 128.00
C 317.95 110.00 291.82 104.21 272.00 112.00
M 266.00 131.00 
C 285.17 117.96 314.35 122.75 324.00 145.00
C 339.06 135.55 357.78 150.82 353.00 168.00
C 380.28 164.14 409.82 179.78 410.00 210.00 C 410.18 240.22 386.48 257.43 356.00 256.00 C 325.52 254.57 287.02 255.90 256.00 256.00 C 224.98 256.10 186.01 254.32 156.00 256.00 C 125.99 257.68 98.86 249.82 92.22 219.78 C 85.59 189.74 113.08 166.63 140.00 168.00
C 136.87 135.85 156.90 106.31 187.02 97.02 C 217.14 87.74 252.45 101.90 266.00 131.00
M 406.00 335.00 
C 414.95 338.64 408.17 355.19 398.78 350.22 C 389.39 345.25 395.93 330.90 406.00 335.00
M 103.00 344.00 
C 112.81 346.63 107.29 363.72 97.33 359.67 C 87.37 355.62 93.01 341.32 103.00 344.00
M 291.00 372.00 
C 299.24 375.35 293.14 392.01 283.78 387.22 C 274.42 382.43 280.15 367.59 291.00 372.00
M 224.00 396.00 
C 234.08 398.56 227.89 416.65 218.00 412.00 C 208.11 407.35 214.62 393.62 224.00 396.00 Z"/>
</g>
<g fill="None" fill-opacity="0.0" stroke="#000000" stroke-opacity="0.00" stroke-width="0.3"><path d="
M 266.00 131.00 
C 252.45 101.90 217.14 87.74 187.02 97.02 C 156.90 106.31 136.87 135.85 140.00 168.00
C 113.08 166.63 85.59 189.74 92.22 219.78 C 98.86 249.82 125.99 257.68 156.00 256.00 C 186.01 254.32 224.98 256.10 256.00 256.00 C 287.02 255.90 325.52 254.57 356.00 256.00 C 386.48 257.43 410.18 240.22 410.00 210.00 C 409.82 179.78 380.28 164.14 353.00 168.00
C 357.78 150.82 339.06 135.55 324.00 145.00
C 314.35 122.75 285.17 117.96 266.00 131.00
M 235.00 193.00 
C 243.97 186.62 257.09 186.31 265.00 195.00
C 269.67 177.89 284.68 163.19 303.01 162.01 C 321.34 160.82 340.26 170.88 346.92 189.08 C 353.59 207.27 348.34 227.60 331.77 239.77 C 315.20 251.94 294.17 246.93 278.25 236.75 C 262.33 226.57 270.41 193.85 249.93 193.07 C 229.44 192.30 236.76 225.24 220.75 234.75 C 204.74 244.27 185.78 250.34 168.77 238.23 C 151.76 226.12 146.67 206.53 152.78 187.78 C 158.88 169.02 176.96 159.11 196.00 160.00 C 215.04 160.89 229.96 175.29 235.00 193.00 Z"/>
</g>
<g fill="None" fill-opacity="0.0" stroke="#FFFFFF" stroke-opacity="0.93" stroke-width="0.3"><path d="
M 235.00 193.00 
C 229.96 175.29 215.04 160.89 196.00 160.00 C 176.96 159.11 158.88 169.02 152.78 187.78 C 146.67 206.53 151.76 226.12 168.77 238.23 C 185.78 250.34 204.74 244.27 220.75 234.75 C 236.76 225.24 229.44 192.30 249.93 193.07 C 270.41 193.85 262.33 226.57 278.25 236.75 C 294.17 246.93 315.20 251.94 331.77 239.77 C 348.34 227.60 353.59 207.27 346.92 189.08 C 340.26 170.88 321.34 160.82 303.01 162.01 C 284.68 163.19 269.67 177.89 265.00 195.00
C 257.09 186.31 243.97 186.62 235.00 193.00
M 198.00 165.00 
C 225.72 168.35 239.51 203.31 222.25 225.25 C 204.98 247.19 170.94 243.81 159.03 217.97 C 147.11 192.14 168.43 161.43 198.00 165.00
M 312.00 167.00 
C 339.30 170.90 353.82 204.61 337.70 226.70 C 321.58 248.78 286.08 247.04 273.25 221.75 C 260.41 196.47 282.64 162.81 312.00 167.00 Z"/>
</g>
<g fill="None" fill-opacity="0.0" stroke="#000000" stroke-opacity="0.00" stroke-width="0.3"><path d="
M 198.00 165.00 
C 168.43 161.43 147.11 192.14 159.03 217.97 C 170.94 243.81 204.98 247.19 222.25 225.25 C 239.51 203.31 225.72 168.35 198.00 165.00 Z"/>
</g>
<g fill="None" fill-opacity="0.0" stroke="#000000" stroke-opacity="0.00" stroke-width="0.3"><path d="
M 312.00 167.00 
C 282.64 162.81 260.41 196.47 273.25 221.75 C 286.08 247.04 321.58 248.78 337.70 226.70 C 353.82 204.61 339.30 170.90 312.00 167.00 Z"/>
</g>
<g fill="None" fill-opacity="0.0" stroke="#000000" stroke-opacity="0.01" stroke-width="0.3"><path d="
M 406.00 335.00 
C 395.93 330.90 389.39 345.25 398.78 350.22 C 408.17 355.19 414.95 338.64 406.00 335.00 Z"/>
</g>
<g fill="None" fill-opacity="0.0" stroke="#000000" stroke-opacity="0.01" stroke-width="0.3"><path d="
M 103.00 344.00 
C 93.01 341.32 87.37 355.62 97.33 359.67 C 107.29 363.72 112.81 346.63 103.00 344.00 Z"/>
</g>
<g fill="None" fill-opacity="0.0" stroke="#000000" stroke-opacity="0.01" stroke-width="0.3"><path d="
M 291.00 372.00 
C 280.15 367.59 274.42 382.43 283.78 387.22 C 293.14 392.01 299.24 375.35 291.00 372.00 Z"/>
</g>
<g fill="None" fill-opacity="0.0" stroke="#000000" stroke-opacity="0.02" stroke-width="0.3"><path d="
M 224.00 396.00 
C 214.62 393.62 208.11 407.35 218.00 412.00 C 227.89 416.65 234.08 398.56 224.00 396.00 Z"/>
</g>
<g fill="#000000" fill-opacity="0.00" stroke="None"><path d="
M 0.00 500.00 
L 500.00 500.00
L 500.00 0.00
L 0.00 0.00
L 0.00 500.00
M 272.00 112.00 
C 291.82 104.21 317.95 110.00 330.00 128.00
C 346.24 124.71 364.02 136.54 367.00 153.00
C 401.33 152.69 428.08 183.52 425.07 217.07 C 422.07 250.62 389.71 276.35 355.00 271.00
C 354.19 294.81 350.66 328.94 380.00 335.00
C 389.20 311.45 424.68 317.43 425.00 343.00 C 425.32 368.57 387.69 374.88 380.00 350.00
C 341.83 345.91 335.63 303.37 340.00 271.00
C 324.67 271.00 309.33 271.00 294.00 271.00
C 293.27 283.64 294.97 296.36 294.00 309.00 C 293.03 321.64 295.86 334.39 294.00 347.00 C 292.14 359.61 303.37 360.96 307.92 371.08 C 312.48 381.19 309.00 391.32 300.92 397.92 C 292.83 404.52 280.97 404.97 272.75 398.25 C 264.54 391.53 261.40 382.45 264.93 371.93 C 268.46 361.41 280.71 360.58 279.00 348.00 C 277.29 335.42 279.87 322.73 279.00 310.00 C 278.13 297.27 279.65 283.80 279.00 271.00
C 262.33 271.00 245.67 271.00 229.00 271.00
C 229.00 308.33 229.00 345.67 229.00 383.00
C 239.53 385.09 245.14 396.99 244.00 407.00 C 242.86 417.01 234.96 426.12 224.78 427.78 C 214.60 429.43 203.51 422.88 199.70 413.30 C 195.88 403.72 198.16 391.09 208.08 385.08 C 218.00 379.07 213.34 363.10 214.00 351.00 C 214.66 338.90 213.65 323.69 214.00 311.00 C 214.35 298.31 213.74 283.85 214.00 271.00
C 197.00 271.00 180.00 271.00 163.00 271.00
C 166.35 305.56 164.96 354.56 122.00 359.00
C 115.56 383.18 77.81 378.30 77.00 353.00 C 76.19 327.69 112.85 319.74 122.00 344.00
C 155.62 337.16 147.44 297.12 148.00 271.00
C 115.61 275.73 84.02 254.53 78.01 222.99 C 71.99 191.45 93.30 159.33 125.00 154.00
C 127.97 121.48 149.40 93.37 181.07 83.07 C 212.75 72.78 252.75 83.50 272.00 112.00 Z"/>
</g>
<g fill="#FFFFFF" fill-opacity="0.98" stroke="None"><path d="
M 272.00 112.00 
C 252.75 83.50 212.75 72.78 181.07 83.07 C 149.40 93.37 127.97 121.48 125.00 154.00
C 93.30 159.33 71.99 191.45 78.01 222.99 C 84.02 254.53 115.61 275.73 148.00 271.00
C 147.44 297.12 155.62 337.16 122.00 344.00
C 112.85 319.74 76.19 327.69 77.00 353.00 C 77.81 378.30 115.56 383.18 122.00 359.00
C 164.96 354.56 166.35 305.56 163.00 271.00
C 180.00 271.00 197.00 271.00 214.00 271.00
C 213.74 283.85 214.35 298.31 214.00 311.00 C 213.65 323.69 214.66 338.90 214.00 351.00 C 213.34 363.10 218.00 379.07 208.08 385.08 C 198.16 391.09 195.88 403.72 199.70 413.30 C 203.51 422.88 214.60 429.43 224.78 427.78 C 234.96 426.12 242.86 417.01 244.00 407.00 C 245.14 396.99 239.53 385.09 229.00 383.00
C 229.00 345.67 229.00 308.33 229.00 271.00
C 245.67 271.00 262.33 271.00 279.00 271.00
C 279.65 283.80 278.13 297.27 279.00 310.00 C 279.87 322.73 277.29 335.42 279.00 348.00 C 280.71 360.58 268.46 361.41 264.93 371.93 C 261.40 382.45 264.54 391.53 272.75 398.25 C 280.97 404.97 292.83 404.52 300.92 397.92 C 309.00 391.32 312.48 381.19 307.92 371.08 C 303.37 360.96 292.14 359.61 294.00 347.00 C 295.86 334.39 293.03 321.64 294.00 309.00 C 294.97 296.36 293.27 283.64 294.00 271.00
C 309.33 271.00 324.67 271.00 340.00 271.00
C 335.63 303.37 341.83 345.91 380.00 350.00
C 387.69 374.88 425.32 368.57 425.00 343.00 C 424.68 317.43 389.20 311.45 380.00 335.00
C 350.66 328.94 354.19 294.81 355.00 271.00
C 389.71 276.35 422.07 250.62 425.07 217.07 C 428.08 183.52 401.33 152.69 367.00 153.00
C 364.02 136.54 346.24 124.71 330.00 128.00
C 317.95 110.00 291.82 104.21 272.00 112.00
M 266.00 131.00 
C 285.17 117.96 314.35 122.75 324.00 145.00
C 339.06 135.55 357.78 150.82 353.00 168.00
C 380.28 164.14 409.82 179.78 410.00 210.00 C 410.18 240.22 386.48 257.43 356.00 256.00 C 325.52 254.57 287.02 255.90 256.00 256.00 C 224.98 256.10 186.01 254.32 156.00 256.00 C 125.99 257.68 98.86 249.82 92.22 219.78 C 85.59 189.74 113.08 166.63 140.00 168.00
C 136.87 135.85 156.90 106.31 187.02 97.02 C 217.14 87.74 252.45 101.90 266.00 131.00
M 406.00 335.00 
C 414.95 338.64 408.17 355.19 398.78 350.22 C 389.39 345.25 395.93 330.90 406.00 335.00
M 103.00 344.00 
C 112.81 346.63 107.29 363.72 97.33 359.67 C 87.37 355.62 93.01 341.32 103.00 344.00
M 291.00 372.00 
C 299.24 375.35 293.14 392.01 283.78 387.22 C 274.42 382.43 280.15 367.59 291.00 372.00
M 224.00 396.00 
C 234.08 398.56 227.89 416.65 218.00 412.00 C 208.11 407.35 214.62 393.62 224.00 396.00 Z"/>
</g>
<g fill="#000000" fill-opacity="0.00" stroke="None"><path d="
M 266.00 131.00 
C 252.45 101.90 217.14 87.74 187.02 97.02 C 156.90 106.31 136.87 135.85 140.00 168.00
C 113.08 166.63 85.59 189.74 92.22 219.78 C 98.86 249.82 125.99 257.68 156.00 256.00 C 186.01 254.32 224.98 256.10 256.00 256.00 C 287.02 255.90 325.52 254.57 356.00 256.00 C 386.48 257.43 410.18 240.22 410.00 210.00 C 409.82 179.78 380.28 164.14 353.00 168.00
C 357.78 150.82 339.06 135.55 324.00 145.00
C 314.35 122.75 285.17 117.96 266.00 131.00
M 235.00 193.00 
C 243.97 186.62 257.09 186.31 265.00 195.00
C 269.67 177.89 284.68 163.19 303.01 162.01 C 321.34 160.82 340.26 170.88 346.92 189.08 C 353.59 207.27 348.34 227.60 331.77 239.77 C 315.20 251.94 294.17 246.93 278.25 236.75 C 262.33 226.57 270.41 193.85 249.93 193.07 C 229.44 192.30 236.76 225.24 220.75 234.75 C 204.74 244.27 185.78 250.34 168.77 238.23 C 151.76 226.12 146.67 206.53 152.78 187.78 C 158.88 169.02 176.96 159.11 196.00 160.00 C 215.04 160.89 229.96 175.29 235.00 193.00 Z"/>
</g>
<g fill="#FFFFFF" fill-opacity="0.93" stroke="None"><path d="
M 235.00 193.00 
C 229.96 175.29 215.04 160.89 196.00 160.00 C 176.96 159.11 158.88 169.02 152.78 187.78 C 146.67 206.53 151.76 226.12 168.77 238.23 C 185.78 250.34 204.74 244.27 220.75 234.75 C 236.76 225.24 229.44 192.30 249.93 193.07 C 270.41 193.85 262.33 226.57 278.25 236.75 C 294.17 246.93 315.20 251.94 331.77 239.77 C 348.34 227.60 353.59 207.27 346.92 189.08 C 340.26 170.88 321.34 160.82 303.01 162.01 C 284.68 163.19 269.67 177.89 265.00 195.00
C 257.09 186.31 243.97 186.62 235.00 193.00
M 198.00 165.00 
C 225.72 168.35 239.51 203.31 222.25 225.25 C 204.98 247.19 170.94 243.81 159.03 217.97 C 147.11 192.14 168.43 161.43 198.00 165.00
M 312.00 167.00 
C 339.30 170.90 353.82 204.61 337.70 226.70 C 321.58 248.78 286.08 247.04 273.25 221.75 C 260.41 196.47 282.64 162.81 312.00 167.00 Z"/>
</g>
<g fill="#000000" fill-opacity="0.00" stroke="None"><path d="
M 198.00 165.00 
C 168.43 161.43 147.11 192.14 159.03 217.97 C 170.94 243.81 204.98 247.19 222.25 225.25 C 239.51 203.31 225.72 168.35 198.00 165.00 Z"/>
</g>
<g fill="#000000" fill-opacity="0.00" stroke="None"><path d="
M 312.00 167.00 
C 282.64 162.81 260.41 196.47 273.25 221.75 C 286.08 247.04 321.58 248.78 337.70 226.70 C 353.82 204.61 339.30 170.90 312.00 167.00 Z"/>
</g>
<g fill="#000000" fill-opacity="0.01" stroke="None"><path d="
M 406.00 335.00 
C 395.93 330.90 389.39 345.25 398.78 350.22 C 408.17 355.19 414.95 338.64 406.00 335.00 Z"/>
</g>
<g fill="#000000" fill-opacity="0.01" stroke="None"><path d="
M 103.00 344.00 
C 93.01 341.32 87.37 355.62 97.33 359.67 C 107.29 363.72 112.81 346.63 103.00 344.00 Z"/>
</g>
<g fill="#000000" fill-opacity="0.01" stroke="None"><path d="
M 291.00 372.00 
C 280.15 367.59 274.42 382.43 283.78 387.22 C 293.14 392.01 299.24 375.35 291.00 372.00 Z"/>
</g>
<g fill="#000000" fill-opacity="0.02" stroke="None"><path d="
M 224.00 396.00 
C 214.62 393.62 208.11 407.35 218.00 412.00 C 227.89 416.65 234.08 398.56 224.00 396.00 Z"/>
</g>
</svg>