<svg xmlns="http://www.w3.org/2000/svg" xmlns:v="https://svgstorm.com"
viewBox = "0 0 1080 1080"
width="1080"
height="1080">
<g fill="None" fill-opacity="0.0" stroke="#000000" stroke-opacity="1.00" stroke-width="0.3"><path d="
M 0.00 1080.00 
L 1080.00 1080.00
L 1080.00 0.00
L 0.00 0.00
L 0.00 1080.00
M 587.00 242.00 
C 630.73 224.39 684.80 238.25 714.00 276.00
C 749.46 269.46 785.87 296.46 793.00 331.00
C 839.55 331.16 880.70 355.70 903.77 397.23 C 926.84 438.75 923.28 496.19 893.25 534.25 C 863.21 572.31 815.62 591.02 767.00 584.00
C 768.87 612.45 763.20 651.73 769.98 678.02 C 776.75 704.32 798.39 717.35 822.00 723.00
C 825.22 711.98 832.42 705.48 841.70 698.70 C 850.97 691.92 865.83 689.57 877.22 691.78 C 888.61 693.98 898.02 698.25 905.75 707.25 C 913.48 716.25 918.44 727.20 918.98 739.02 C 919.51 750.85 915.16 762.84 908.08 772.08 C 901.00 781.32 892.13 786.06 881.33 789.33 C 870.52 792.59 853.79 790.95 844.31 784.69 C 834.82 778.44 827.84 772.09 823.08 761.92 C 818.31 751.76 802.67 753.49 792.98 748.03 C 783.28 742.56 774.89 738.49 766.75 730.25 C 758.61 722.01 752.28 715.65 746.75 705.25 C 741.21 694.86 737.52 684.93 735.67 672.33 C 733.82 659.73 733.77 643.95 734.00 630.00 C 734.23 616.05 733.83 599.21 734.00 585.00
C 701.00 585.00 668.00 585.00 635.00 585.00
C 634.80 599.49 635.27 613.46 635.00 628.00 C 634.73 642.54 635.51 657.39 635.00 672.00 C 634.49 686.61 636.12 700.24 635.00 715.00 C 633.88 729.76 637.41 743.94 635.00 759.00 C 632.59 774.06 643.42 775.99 653.25 783.75 C 663.07 791.52 665.43 801.42 668.33 812.67 C 671.23 823.92 667.30 837.67 661.23 847.23 C 655.16 856.79 647.33 862.58 636.98 866.98 C 626.62 871.37 612.10 871.58 601.78 867.22 C 591.45 862.87 583.29 857.14 577.23 847.77 C 571.17 838.40 566.91 824.53 569.33 813.33 C 571.75 802.13 575.11 792.19 584.25 784.25 C 593.39 776.31 605.50 775.09 603.00 760.00 C 600.50 744.91 604.16 730.79 603.00 716.00 C 601.84 701.21 603.53 687.67 603.00 673.00 C 602.47 658.33 603.28 643.67 603.00 629.00 C 602.72 614.33 603.21 599.67 603.00 585.00
C 566.67 585.00 530.33 585.00 494.00 585.00
C 493.95 600.35 494.06 615.65 494.00 631.00 C 493.94 646.35 494.12 661.63 494.00 677.00 C 493.88 692.37 494.25 708.71 494.00 724.00 C 493.75 739.29 494.56 754.94 494.00 770.00 C 493.44 785.06 495.23 801.35 494.00 816.00 C 492.77 830.65 508.37 830.70 515.77 841.23 C 523.17 851.76 528.80 862.00 528.00 875.00 C 527.20 888.00 522.59 898.55 513.75 907.75 C 504.92 916.95 495.50 921.74 483.00 923.00 C 470.50 924.26 456.57 920.89 446.92 913.08 C 437.27 905.27 431.55 895.82 429.01 883.99 C 426.47 872.17 428.46 856.31 435.31 846.31 C 442.15 836.30 451.03 829.71 462.00 826.00
C 462.00 745.67 462.00 665.33 462.00 585.00
C 425.67 585.00 389.33 585.00 353.00 585.00
C 352.94 603.24 353.08 625.12 353.00 643.00 C 352.92 660.88 353.84 682.12 350.00 698.00 C 346.17 713.88 339.60 725.17 330.70 737.70 C 321.80 750.23 310.99 755.47 299.25 764.25 C 287.52 773.04 267.00 769.98 260.69 783.69 C 254.39 797.41 241.42 805.72 227.33 809.33 C 213.23 812.93 194.57 808.87 183.30 798.70 C 172.04 788.52 165.18 773.28 166.00 758.00 C 166.82 742.72 174.80 729.63 187.08 720.08 C 199.36 710.53 218.91 708.60 233.22 713.78 C 247.53 718.95 257.15 729.21 263.00 743.00
C 288.80 735.71 313.03 721.18 317.99 690.99 C 322.96 660.80 318.45 617.06 320.00 585.00
C 272.86 590.00 226.32 574.52 195.75 539.25 C 165.18 503.98 158.18 449.40 175.93 407.93 C 193.67 366.45 229.22 341.54 271.00 332.00
C 275.79 262.05 324.35 200.57 392.07 179.07 C 459.80 157.58 545.68 180.43 587.00 242.00 Z"/>
</g>
<g fill="None" fill-opacity="0.0" stroke="#FFFFFF" stroke-opacity="1.00" stroke-width="0.3"><path d="
M 587.00 242.00 
C 545.68 180.43 459.80 157.58 392.07 179.07 C 324.35 200.57 275.79 262.05 271.00 332.00
C 229.22 341.54 193.67 366.45 175.93 407.93 C 158.18 449.40 165.18 503.98 195.75 539.25 C 226.32 574.52 272.86 590.00 320.00 585.00
C 318.45 617.06 322.96 660.80 317.99 690.99 C 313.03 721.18 288.80 735.71 263.00 743.00
C 257.15 729.21 247.53 718.95 233.22 713.78 C 218.91 708.60 199.36 710.53 187.08 720.08 C 174.80 729.63 166.82 742.72 166.00 758.00 C 165.18 773.28 172.04 788.52 183.30 798.70 C 194.57 808.87 213.23 812.93 227.33 809.33 C 241.42 805.72 254.39 797.41 260.69 783.69 C 267.00 769.98 287.52 773.04 299.25 764.25 C 310.99 755.47 321.80 750.23 330.70 737.70 C 339.60 725.17 346.17 713.88 350.00 698.00 C 353.84 682.12 352.92 660.88 353.00 643.00 C 353.08 625.12 352.94 603.24 353.00 585.00
C 389.33 585.00 425.67 585.00 462.00 585.00
C 462.00 665.33 462.00 745.67 462.00 826.00
C 451.03 829.71 442.15 836.30 435.31 846.31 C 428.46 856.31 426.47 872.17 429.01 883.99 C 431.55 895.82 437.27 905.27 446.92 913.08 C 456.57 920.89 470.50 924.26 483.00 923.00 C 495.50 921.74 504.92 916.95 513.75 907.75 C 522.59 898.55 527.20 888.00 528.00 875.00 C 528.80 862.00 523.17 851.76 515.77 841.23 C 508.37 830.70 492.77 830.65 494.00 816.00 C 495.23 801.35 493.44 785.06 494.00 770.00 C 494.56 754.94 493.75 739.29 494.00 724.00 C 494.25 708.71 493.88 692.37 494.00 677.00 C 494.12 661.63 493.94 646.35 494.00 631.00 C 494.06 615.65 493.95 600.35 494.00 585.00
C 530.33 585.00 566.67 585.00 603.00 585.00
C 603.21 599.67 602.72 614.33 603.00 629.00 C 603.28 643.67 602.47 658.33 603.00 673.00 C 603.53 687.67 601.84 701.21 603.00 716.00 C 604.16 730.79 600.50 744.91 603.00 760.00 C 605.50 775.09 593.39 776.31 584.25 784.25 C 575.11 792.19 571.75 802.13 569.33 813.33 C 566.91 824.53 571.17 838.40 577.23 847.77 C 583.29 857.14 591.45 862.87 601.78 867.22 C 612.10 871.58 626.62 871.37 636.98 866.98 C 647.33 862.58 655.16 856.79 661.23 847.23 C 667.30 837.67 671.23 823.92 668.33 812.67 C 665.43 801.42 663.07 791.52 653.25 783.75 C 643.42 775.99 632.59 774.06 635.00 759.00 C 637.41 743.94 633.88 729.76 635.00 715.00 C 636.12 700.24 634.49 686.61 635.00 672.00 C 635.51 657.39 634.73 642.54 635.00 628.00 C 635.27 613.46 634.80 599.49 635.00 585.00
C 668.00 585.00 701.00 585.00 734.00 585.00
C 733.83 599.21 734.23 616.05 734.00 630.00 C 733.77 643.95 733.82 659.73 735.67 672.33 C 737.52 684.93 741.21 694.86 746.75 705.25 C 752.28 715.65 758.61 722.01 766.75 730.25 C 774.89 738.49 783.28 742.56 792.98 748.03 C 802.67 753.49 818.31 751.76 823.08 761.92 C 827.84 772.09 834.82 778.44 844.31 784.69 C 853.79 790.95 870.52 792.59 881.33 789.33 C 892.13 786.06 901.00 781.32 908.08 772.08 C 915.16 762.84 919.51 750.85 918.98 739.02 C 918.44 727.20 913.48 716.25 905.75 707.25 C 898.02 698.25 888.61 693.98 877.22 691.78 C 865.83 689.57 850.97 691.92 841.70 698.70 C 832.42 705.48 825.22 711.98 822.00 723.00
C 798.39 717.35 776.75 704.32 769.98 678.02 C 763.20 651.73 768.87 612.45 767.00 584.00
C 815.62 591.02 863.21 572.31 893.25 534.25 C 923.28 496.19 926.84 438.75 903.77 397.23 C 880.70 355.70 839.55 331.16 793.00 331.00
C 785.87 296.46 749.46 269.46 714.00 276.00
C 684.80 238.25 630.73 224.39 587.00 242.00
M 575.00 283.00 
C 595.76 270.06 625.31 262.97 649.07 269.93 C 672.84 276.88 687.86 291.07 700.00 312.00
C 716.21 306.18 733.64 304.89 747.75 316.25 C 761.86 327.61 764.26 345.13 763.00 363.00
C 805.53 357.40 855.10 372.04 874.77 412.23 C 894.44 452.42 889.82 499.08 852.75 529.75 C 815.69 560.43 762.33 551.84 713.00 552.00 C 663.67 552.16 601.51 552.50 551.00 552.00 C 500.49 551.50 439.49 553.49 390.00 552.00 C 340.51 550.51 283.22 561.20 242.30 537.70 C 201.39 514.20 191.25 466.46 203.78 425.78 C 216.31 385.09 260.83 360.15 302.00 362.00
C 295.37 293.35 339.96 228.36 405.02 209.02 C 470.09 189.69 545.58 220.35 575.00 283.00
M 873.00 723.00 
C 894.94 727.55 886.29 764.20 864.00 758.00 C 841.71 751.80 850.96 718.44 873.00 723.00
M 221.00 743.00 
C 242.49 747.76 234.15 783.87 212.00 778.00 C 189.85 772.13 198.49 738.01 221.00 743.00
M 625.00 803.00 
C 646.15 808.24 635.85 845.15 613.93 837.07 C 592.01 829.00 602.17 797.34 625.00 803.00
M 479.00 855.00 
C 500.94 856.41 500.06 892.14 477.00 891.00 C 453.93 889.86 455.93 853.52 479.00 855.00 Z"/>
</g>
<g fill="None" fill-opacity="0.0" stroke="#000000" stroke-opacity="1.00" stroke-width="0.3"><path d="
M 575.00 283.00 
C 545.58 220.35 470.09 189.69 405.02 209.02 C 339.96 228.36 295.37 293.35 302.00 362.00
C 260.83 360.15 216.31 385.09 203.78 425.78 C 191.25 466.46 201.39 514.20 242.30 537.70 C 283.22 561.20 340.51 550.51 390.00 552.00 C 439.49 553.49 500.49 551.50 551.00 552.00 C 601.51 552.50 663.67 552.16 713.00 552.00 C 762.33 551.84 815.69 560.43 852.75 529.75 C 889.82 499.08 894.44 452.42 874.77 412.23 C 855.10 372.04 805.53 357.40 763.00 363.00
C 764.26 345.13 761.86 327.61 747.75 316.25 C 733.64 304.89 716.21 306.18 700.00 312.00
C 687.86 291.07 672.84 276.88 649.07 269.93 C 625.31 262.97 595.76 270.06 575.00 283.00
M 507.00 419.00 
C 525.38 401.41 555.95 402.99 573.00 422.00
C 577.19 404.34 585.36 388.26 599.25 375.25 C 613.14 362.24 629.04 354.45 648.02 351.02 C 667.01 347.60 692.85 351.93 709.08 361.92 C 725.30 371.91 735.70 382.56 744.92 399.08 C 754.14 415.61 758.10 441.31 754.00 460.00 C 749.90 478.69 742.32 493.88 728.75 507.75 C 715.18 521.63 698.81 528.84 680.00 533.00 C 661.18 537.16 636.83 533.38 619.92 524.08 C 603.02 514.77 592.75 503.96 582.25 487.75 C 571.74 471.55 574.06 448.32 565.25 431.75 C 556.43 415.19 525.89 412.49 514.75 427.75 C 503.62 443.01 508.46 467.37 497.08 483.08 C 485.70 498.78 476.59 510.26 459.30 519.30 C 442.02 528.35 418.19 532.11 398.98 528.02 C 379.76 523.94 364.66 516.35 350.75 502.25 C 336.85 488.15 329.51 473.46 325.67 454.33 C 321.83 435.20 325.30 409.64 334.92 392.92 C 344.55 376.21 355.50 366.54 371.70 356.70 C 387.89 346.85 413.88 342.39 433.00 346.00 C 452.12 349.61 466.69 358.10 480.75 371.25 C 494.81 384.40 503.16 400.84 507.00 419.00 Z"/>
</g>
<g fill="None" fill-opacity="0.0" stroke="#FFFFFF" stroke-opacity="1.00" stroke-width="0.3"><path d="
M 507.00 419.00 
C 503.16 400.84 494.81 384.40 480.75 371.25 C 466.69 358.10 452.12 349.61 433.00 346.00 C 413.88 342.39 387.89 346.85 371.70 356.70 C 355.50 366.54 344.55 376.21 334.92 392.92 C 325.30 409.64 321.83 435.20 325.67 454.33 C 329.51 473.46 336.85 488.15 350.75 502.25 C 364.66 516.35 379.76 523.94 398.98 528.02 C 418.19 532.11 442.02 528.35 459.30 519.30 C 476.59 510.26 485.70 498.78 497.08 483.08 C 508.46 467.37 503.62 443.01 514.75 427.75 C 525.89 412.49 556.43 415.19 565.25 431.75 C 574.06 448.32 571.74 471.55 582.25 487.75 C 592.75 503.96 603.02 514.77 619.92 524.08 C 636.83 533.38 661.18 537.16 680.00 533.00 C 698.81 528.84 715.18 521.63 728.75 507.75 C 742.32 493.88 749.90 478.69 754.00 460.00 C 758.10 441.31 754.14 415.61 744.92 399.08 C 735.70 382.56 725.30 371.91 709.08 361.92 C 692.85 351.93 667.01 347.60 648.02 351.02 C 629.04 354.45 613.14 362.24 599.25 375.25 C 585.36 388.26 577.19 404.34 573.00 422.00
C 555.95 402.99 525.38 401.41 507.00 419.00
M 423.00 356.00 
C 483.32 361.84 518.21 432.68 483.75 482.75 C 449.29 532.82 374.65 529.11 345.08 475.92 C 315.51 422.73 359.60 349.86 423.00 356.00
M 672.00 361.00 
C 731.95 366.80 764.76 440.38 729.75 488.75 C 694.73 537.12 618.91 534.17 591.08 478.92 C 563.24 423.68 607.61 354.77 672.00 361.00 Z"/>
</g>
<g fill="None" fill-opacity="0.0" stroke="#000000" stroke-opacity="1.00" stroke-width="0.3"><path d="
M 423.00 356.00 
C 359.60 349.86 315.51 422.73 345.08 475.92 C 374.65 529.11 449.29 532.82 483.75 482.75 C 518.21 432.68 483.32 361.84 423.00 356.00 Z"/>
</g>
<g fill="None" fill-opacity="0.0" stroke="#000000" stroke-opacity="1.00" stroke-width="0.3"><path d="
M 672.00 361.00 
C 607.61 354.77 563.24 423.68 591.08 478.92 C 618.91 534.17 694.73 537.12 729.75 488.75 C 764.76 440.38 731.95 366.80 672.00 361.00 Z"/>
</g>
<g fill="None" fill-opacity="0.0" stroke="#000000" stroke-opacity="1.00" stroke-width="0.3"><path d="
M 873.00 723.00 
C 850.96 718.44 841.71 751.80 864.00 758.00 C 886.29 764.20 894.94 727.55 873.00 723.00 Z"/>
</g>
<g fill="None" fill-opacity="0.0" stroke="#000000" stroke-opacity="1.00" stroke-width="0.3"><path d="
M 221.00 743.00 
C 198.49 738.01 189.85 772.13 212.00 778.00 C 234.15 783.87 242.49 747.76 221.00 743.00 Z"/>
</g>
<g fill="None" fill-opacity="0.0" stroke="#000000" stroke-opacity="1.00" stroke-width="0.3"><path d="
M 625.00 803.00 
C 602.17 797.34 592.01 829.00 613.93 837.07 C 635.85 845.15 646.15 808.24 625.00 803.00 Z"/>
</g>
<g fill="None" fill-opacity="0.0" stroke="#000000" stroke-opacity="1.00" stroke-width="0.3"><path d="
M 479.00 855.00 
C 455.93 853.52 453.93 889.86 477.00 891.00 C 500.06 892.14 500.94 856.41 479.00 855.00 Z"/>
</g>
<g fill="#000000" fill-opacity="1.00" stroke="None">
<path d="
M 0.00 1080.00 
L 1080.00 1080.00
L 1080.00 0.00
L 0.00 0.00
L 0.00 1080.00
M 587.00 242.00 
C 630.73 224.39 684.80 238.25 714.00 276.00
C 749.46 269.46 785.87 296.46 793.00 331.00
C 839.55 331.16 880.70 355.70 903.77 397.23 C 926.84 438.75 923.28 496.19 893.25 534.25 C 863.21 572.31 815.62 591.02 767.00 584.00
C 768.87 612.45 763.20 651.73 769.98 678.02 C 776.75 704.32 798.39 717.35 822.00 723.00
C 825.22 711.98 832.42 705.48 841.70 698.70 C 850.97 691.92 865.83 689.57 877.22 691.78 C 888.61 693.98 898.02 698.25 905.75 707.25 C 913.48 716.25 918.44 727.20 918.98 739.02 C 919.51 750.85 915.16 762.84 908.08 772.08 C 901.00 781.32 892.13 786.06 881.33 789.33 C 870.52 792.59 853.79 790.95 844.31 784.69 C 834.82 778.44 827.84 772.09 823.08 761.92 C 818.31 751.76 802.67 753.49 792.98 748.03 C 783.28 742.56 774.89 738.49 766.75 730.25 C 758.61 722.01 752.28 715.65 746.75 705.25 C 741.21 694.86 737.52 684.93 735.67 672.33 C 733.82 659.73 733.77 643.95 734.00 630.00 C 734.23 616.05 733.83 599.21 734.00 585.00
C 701.00 585.00 668.00 585.00 635.00 585.00
C 634.80 599.49 635.27 613.46 635.00 628.00 C 634.73 642.54 635.51 657.39 635.00 672.00 C 634.49 686.61 636.12 700.24 635.00 715.00 C 633.88 729.76 637.41 743.94 635.00 759.00 C 632.59 774.06 643.42 775.99 653.25 783.75 C 663.07 791.52 665.43 801.42 668.33 812.67 C 671.23 823.92 667.30 837.67 661.23 847.23 C 655.16 856.79 647.33 862.58 636.98 866.98 C 626.62 871.37 612.10 871.58 601.78 867.22 C 591.45 862.87 583.29 857.14 577.23 847.77 C 571.17 838.40 566.91 824.53 569.33 813.33 C 571.75 802.13 575.11 792.19 584.25 784.25 C 593.39 776.31 605.50 775.09 603.00 760.00 C 600.50 744.91 604.16 730.79 603.00 716.00 C 601.84 701.21 603.53 687.67 603.00 673.00 C 602.47 658.33 603.28 643.67 603.00 629.00 C 602.72 614.33 603.21 599.67 603.00 585.00
C 566.67 585.00 530.33 585.00 494.00 585.00
C 493.95 600.35 494.06 615.65 494.00 631.00 C 493.94 646.35 494.12 661.63 494.00 677.00 C 493.88 692.37 494.25 708.71 494.00 724.00 C 493.75 739.29 494.56 754.94 494.00 770.00 C 493.44 785.06 495.23 801.35 494.00 816.00 C 492.77 830.65 508.37 830.70 515.77 841.23 C 523.17 851.76 528.80 862.00 528.00 875.00 C 527.20 888.00 522.59 898.55 513.75 907.75 C 504.92 916.95 495.50 921.74 483.00 923.00 C 470.50 924.26 456.57 920.89 446.92 913.08 C 437.27 905.27 431.55 895.82 429.01 883.99 C 426.47 872.17 428.46 856.31 435.31 846.31 C 442.15 836.30 451.03 829.71 462.00 826.00
C 462.00 745.67 462.00 665.33 462.00 585.00
C 425.67 585.00 389.33 585.00 353.00 585.00
C 352.94 603.24 353.08 625.12 353.00 643.00 C 352.92 660.88 353.84 682.12 350.00 698.00 C 346.17 713.88 339.60 725.17 330.70 737.70 C 321.80 750.23 310.99 755.47 299.25 764.25 C 287.52 773.04 267.00 769.98 260.69 783.69 C 254.39 797.41 241.42 805.72 227.33 809.33 C 213.23 812.93 194.57 808.87 183.30 798.70 C 172.04 788.52 165.18 773.28 166.00 758.00 C 166.82 742.72 174.80 729.63 187.08 720.08 C 199.36 710.53 218.91 708.60 233.22 713.78 C 247.53 718.95 257.15 729.21 263.00 743.00
C 288.80 735.71 313.03 721.18 317.99 690.99 C 322.96 660.80 318.45 617.06 320.00 585.00
C 272.86 590.00 226.32 574.52 195.75 539.25 C 165.18 503.98 158.18 449.40 175.93 407.93 C 193.67 366.45 229.22 341.54 271.00 332.00
C 275.79 262.05 324.35 200.57 392.07 179.07 C 459.80 157.58 545.68 180.43 587.00 242.00 Z"/>
</g>
<g fill="#FFFFFF" fill-opacity="1.00" stroke="None">
<path d="
M 587.00 242.00 
C 545.68 180.43 459.80 157.58 392.07 179.07 C 324.35 200.57 275.79 262.05 271.00 332.00
C 229.22 341.54 193.67 366.45 175.93 407.93 C 158.18 449.40 165.18 503.98 195.75 539.25 C 226.32 574.52 272.86 590.00 320.00 585.00
C 318.45 617.06 322.96 660.80 317.99 690.99 C 313.03 721.18 288.80 735.71 263.00 743.00
C 257.15 729.21 247.53 718.95 233.22 713.78 C 218.91 708.60 199.36 710.53 187.08 720.08 C 174.80 729.63 166.82 742.72 166.00 758.00 C 165.18 773.28 172.04 788.52 183.30 798.70 C 194.57 808.87 213.23 812.93 227.33 809.33 C 241.42 805.72 254.39 797.41 260.69 783.69 C 267.00 769.98 287.52 773.04 299.25 764.25 C 310.99 755.47 321.80 750.23 330.70 737.70 C 339.60 725.17 346.17 713.88 350.00 698.00 C 353.84 682.12 352.92 660.88 353.00 643.00 C 353.08 625.12 352.94 603.24 353.00 585.00
C 389.33 585.00 425.67 585.00 462.00 585.00
C 462.00 665.33 462.00 745.67 462.00 826.00
C 451.03 829.71 442.15 836.30 435.31 846.31 C 428.46 856.31 426.47 872.17 429.01 883.99 C 431.55 895.82 437.27 905.27 446.92 913.08 C 456.57 920.89 470.50 924.26 483.00 923.00 C 495.50 921.74 504.92 916.95 513.75 907.75 C 522.59 898.55 527.20 888.00 528.00 875.00 C 528.80 862.00 523.17 851.76 515.77 841.23 C 508.37 830.70 492.77 830.65 494.00 816.00 C 495.23 801.35 493.44 785.06 494.00 770.00 C 494.56 754.94 493.75 739.29 494.00 724.00 C 494.25 708.71 493.88 692.37 494.00 677.00 C 494.12 661.63 493.94 646.35 494.00 631.00 C 494.06 615.65 493.95 600.35 494.00 585.00
C 530.33 585.00 566.67 585.00 603.00 585.00
C 603.21 599.67 602.72 614.33 603.00 629.00 C 603.28 643.67 602.47 658.33 603.00 673.00 C 603.53 687.67 601.84 701.21 603.00 716.00 C 604.16 730.79 600.50 744.91 603.00 760.00 C 605.50 775.09 593.39 776.31 584.25 784.25 C 575.11 792.19 571.75 802.13 569.33 813.33 C 566.91 824.53 571.17 838.40 577.23 847.77 C 583.29 857.14 591.45 862.87 601.78 867.22 C 612.10 871.58 626.62 871.37 636.98 866.98 C 647.33 862.58 655.16 856.79 661.23 847.23 C 667.30 837.67 671.23 823.92 668.33 812.67 C 665.43 801.42 663.07 791.52 653.25 783.75 C 643.42 775.99 632.59 774.06 635.00 759.00 C 637.41 743.94 633.88 729.76 635.00 715.00 C 636.12 700.24 634.49 686.61 635.00 672.00 C 635.51 657.39 634.73 642.54 635.00 628.00 C 635.27 613.46 634.80 599.49 635.00 585.00
C 668.00 585.00 701.00 585.00 734.00 585.00
C 733.83 599.21 734.23 616.05 734.00 630.00 C 733.77 643.95 733.82 659.73 735.67 672.33 C 737.52 684.93 741.21 694.86 746.75 705.25 C 752.28 715.65 758.61 722.01 766.75 730.25 C 774.89 738.49 783.28 742.56 792.98 748.03 C 802.67 753.49 818.31 751.76 823.08 761.92 C 827.84 772.09 834.82 778.44 844.31 784.69 C 853.79 790.95 870.52 792.59 881.33 789.33 C 892.13 786.06 901.00 781.32 908.08 772.08 C 915.16 762.84 919.51 750.85 918.98 739.02 C 918.44 727.20 913.48 716.25 905.75 707.25 C 898.02 698.25 888.61 693.98 877.22 691.78 C 865.83 689.57 850.97 691.92 841.70 698.70 C 832.42 705.48 825.22 711.98 822.00 723.00
C 798.39 717.35 776.75 704.32 769.98 678.02 C 763.20 651.73 768.87 612.45 767.00 584.00
C 815.62 591.02 863.21 572.31 893.25 534.25 C 923.28 496.19 926.84 438.75 903.77 397.23 C 880.70 355.70 839.55 331.16 793.00 331.00
C 785.87 296.46 749.46 269.46 714.00 276.00
C 684.80 238.25 630.73 224.39 587.00 242.00
M 575.00 283.00 
C 595.76 270.06 625.31 262.97 649.07 269.93 C 672.84 276.88 687.86 291.07 700.00 312.00
C 716.21 306.18 733.64 304.89 747.75 316.25 C 761.86 327.61 764.26 345.13 763.00 363.00
C 805.53 357.40 855.10 372.04 874.77 412.23 C 894.44 452.42 889.82 499.08 852.75 529.75 C 815.69 560.43 762.33 551.84 713.00 552.00 C 663.67 552.16 601.51 552.50 551.00 552.00 C 500.49 551.50 439.49 553.49 390.00 552.00 C 340.51 550.51 283.22 561.20 242.30 537.70 C 201.39 514.20 191.25 466.46 203.78 425.78 C 216.31 385.09 260.83 360.15 302.00 362.00
C 295.37 293.35 339.96 228.36 405.02 209.02 C 470.09 189.69 545.58 220.35 575.00 283.00
M 873.00 723.00 
C 894.94 727.55 886.29 764.20 864.00 758.00 C 841.71 751.80 850.96 718.44 873.00 723.00
M 221.00 743.00 
C 242.49 747.76 234.15 783.87 212.00 778.00 C 189.85 772.13 198.49 738.01 221.00 743.00
M 625.00 803.00 
C 646.15 808.24 635.85 845.15 613.93 837.07 C 592.01 829.00 602.17 797.34 625.00 803.00
M 479.00 855.00 
C 500.94 856.41 500.06 892.14 477.00 891.00 C 453.93 889.86 455.93 853.52 479.00 855.00 Z"/>
</g>
<g fill="#000000" fill-opacity="1.00" stroke="None">
<path d="
M 575.00 283.00 
C 545.58 220.35 470.09 189.69 405.02 209.02 C 339.96 228.36 295.37 293.35 302.00 362.00
C 260.83 360.15 216.31 385.09 203.78 425.78 C 191.25 466.46 201.39 514.20 242.30 537.70 C 283.22 561.20 340.51 550.51 390.00 552.00 C 439.49 553.49 500.49 551.50 551.00 552.00 C 601.51 552.50 663.67 552.16 713.00 552.00 C 762.33 551.84 815.69 560.43 852.75 529.75 C 889.82 499.08 894.44 452.42 874.77 412.23 C 855.10 372.04 805.53 357.40 763.00 363.00
C 764.26 345.13 761.86 327.61 747.75 316.25 C 733.64 304.89 716.21 306.18 700.00 312.00
C 687.86 291.07 672.84 276.88 649.07 269.93 C 625.31 262.97 595.76 270.06 575.00 283.00
M 507.00 419.00 
C 525.38 401.41 555.95 402.99 573.00 422.00
C 577.19 404.34 585.36 388.26 599.25 375.25 C 613.14 362.24 629.04 354.45 648.02 351.02 C 667.01 347.60 692.85 351.93 709.08 361.92 C 725.30 371.91 735.70 382.56 744.92 399.08 C 754.14 415.61 758.10 441.31 754.00 460.00 C 749.90 478.69 742.32 493.88 728.75 507.75 C 715.18 521.63 698.81 528.84 680.00 533.00 C 661.18 537.16 636.83 533.38 619.92 524.08 C 603.02 514.77 592.75 503.96 582.25 487.75 C 571.74 471.55 574.06 448.32 565.25 431.75 C 556.43 415.19 525.89 412.49 514.75 427.75 C 503.62 443.01 508.46 467.37 497.08 483.08 C 485.70 498.78 476.59 510.26 459.30 519.30 C 442.02 528.35 418.19 532.11 398.98 528.02 C 379.76 523.94 364.66 516.35 350.75 502.25 C 336.85 488.15 329.51 473.46 325.67 454.33 C 321.83 435.20 325.30 409.64 334.92 392.92 C 344.55 376.21 355.50 366.54 371.70 356.70 C 387.89 346.85 413.88 342.39 433.00 346.00 C 452.12 349.61 466.69 358.10 480.75 371.25 C 494.81 384.40 503.16 400.84 507.00 419.00 Z"/>
</g>
<g fill="#FFFFFF" fill-opacity="1.00" stroke="None">
<path d="
M 507.00 419.00 
C 503.16 400.84 494.81 384.40 480.75 371.25 C 466.69 358.10 452.12 349.61 433.00 346.00 C 413.88 342.39 387.89 346.85 371.70 356.70 C 355.50 366.54 344.55 376.21 334.92 392.92 C 325.30 409.64 321.83 435.20 325.67 454.33 C 329.51 473.46 336.85 488.15 350.75 502.25 C 364.66 516.35 379.76 523.94 398.98 528.02 C 418.19 532.11 442.02 528.35 459.30 519.30 C 476.59 510.26 485.70 498.78 497.08 483.08 C 508.46 467.37 503.62 443.01 514.75 427.75 C 525.89 412.49 556.43 415.19 565.25 431.75 C 574.06 448.32 571.74 471.55 582.25 487.75 C 592.75 503.96 603.02 514.77 619.92 524.08 C 636.83 533.38 661.18 537.16 680.00 533.00 C 698.81 528.84 715.18 521.63 728.75 507.75 C 742.32 493.88 749.90 478.69 754.00 460.00 C 758.10 441.31 754.14 415.61 744.92 399.08 C 735.70 382.56 725.30 371.91 709.08 361.92 C 692.85 351.93 667.01 347.60 648.02 351.02 C 629.04 354.45 613.14 362.24 599.25 375.25 C 585.36 388.26 577.19 404.34 573.00 422.00
C 555.95 402.99 525.38 401.41 507.00 419.00
M 423.00 356.00 
C 483.32 361.84 518.21 432.68 483.75 482.75 C 449.29 532.82 374.65 529.11 345.08 475.92 C 315.51 422.73 359.60 349.86 423.00 356.00
M 672.00 361.00 
C 731.95 366.80 764.76 440.38 729.75 488.75 C 694.73 537.12 618.91 534.17 591.08 478.92 C 563.24 423.68 607.61 354.77 672.00 361.00 Z"/>
</g>
<g fill="#000000" fill-opacity="1.00" stroke="None">
<path d="
M 423.00 356.00 
C 359.60 349.86 315.51 422.73 345.08 475.92 C 374.65 529.11 449.29 532.82 483.75 482.75 C 518.21 432.68 483.32 361.84 423.00 356.00 Z"/>
</g>
<g fill="#000000" fill-opacity="1.00" stroke="None">
<path d="
M 672.00 361.00 
C 607.61 354.77 563.24 423.68 591.08 478.92 C 618.91 534.17 694.73 537.12 729.75 488.75 C 764.76 440.38 731.95 366.80 672.00 361.00 Z"/>
</g>
<g fill="#000000" fill-opacity="1.00" stroke="None">
<path d="
M 873.00 723.00 
C 850.96 718.44 841.71 751.80 864.00 758.00 C 886.29 764.20 894.94 727.55 873.00 723.00 Z"/>
</g>
<g fill="#000000" fill-opacity="1.00" stroke="None">
<path d="
M 221.00 743.00 
C 198.49 738.01 189.85 772.13 212.00 778.00 C 234.15 783.87 242.49 747.76 221.00 743.00 Z"/>
</g>
<g fill="#000000" fill-opacity="1.00" stroke="None">
<path d="
M 625.00 803.00 
C 602.17 797.34 592.01 829.00 613.93 837.07 C 635.85 845.15 646.15 808.24 625.00 803.00 Z"/>
</g>
<g fill="#000000" fill-opacity="1.00" stroke="None">
<path d="
M 479.00 855.00 
C 455.93 853.52 453.93 889.86 477.00 891.00 C 500.06 892.14 500.94 856.41 479.00 855.00 Z"/>
</g>
</svg>