<svg xmlns="http://www.w3.org/2000/svg" xmlns:v="https://svgstorm.com"
viewBox = "0 0 999 249"
width="999"
height="500">
<g fill="None" fill-opacity="0.0" stroke="#000000" stroke-opacity="0.00" stroke-width="0.3"><path d="
M 0.00 249.00 
L 999.00 249.00
L 999.00 0.00
L 0.00 0.00
L 0.00 249.00
M 69.00 94.00 
C 67.97 106.43 59.90 119.08 55.23 131.23 C 52.23 136.40 52.36 147.79 45.33 147.67 C 45.66 135.88 54.46 122.78 58.77 110.77 C 61.87 105.36 61.51 94.34 69.00 94.00
M 97.00 132.00 
C 100.22 133.97 104.38 132.58 108.00 133.00
C 109.45 139.59 100.75 136.16 97.00 137.00 C 92.00 137.00 87.00 137.00 82.00 137.00
C 80.28 128.59 96.49 137.57 93.00 127.00 C 93.00 119.67 93.00 112.33 93.00 105.00
C 85.97 108.35 78.06 99.28 89.00 100.00 C 94.49 101.47 104.72 96.73 106.97 103.03 C 103.00 106.06 94.49 104.31 97.20 112.25 C 96.44 118.76 97.58 126.15 97.00 132.00
M 152.00 134.00 
C 150.52 139.89 141.60 135.77 137.00 137.00
C 136.60 131.41 145.15 133.32 141.00 126.00
C 135.67 126.00 130.33 126.00 125.00 126.00
C 125.07 128.52 123.92 130.73 123.00 133.00
C 138.33 133.84 115.29 142.12 114.00 134.00
C 123.19 128.67 122.70 114.15 128.00 105.00
C 113.63 105.95 124.19 96.44 133.00 100.00 C 144.60 106.13 139.88 127.97 152.00 134.00
M 179.00 126.00 
C 181.29 119.91 179.37 111.84 180.00 105.00
C 163.81 104.15 188.11 93.57 188.00 104.00
C 180.97 104.95 185.10 113.93 184.00 119.00 C 184.00 125.33 184.00 131.67 184.00 138.00
C 173.35 133.12 171.08 118.08 164.00 109.00
C 162.98 115.71 161.00 127.27 165.08 132.92 C 178.67 135.29 154.62 141.36 154.00 134.00
C 161.03 133.05 156.90 124.07 158.00 119.00 C 156.89 113.87 161.08 105.02 154.00 104.00
C 155.28 95.35 168.55 100.98 168.92 108.08 C 172.36 114.05 175.56 120.04 179.00 126.00
M 217.00 126.00 
C 219.29 119.91 217.37 111.84 218.00 105.00
C 201.81 104.15 226.11 93.57 226.00 104.00
C 218.97 104.95 223.10 113.93 222.00 119.00 C 222.00 125.33 222.00 131.67 222.00 138.00
C 210.74 133.35 209.63 116.98 201.00 109.00
C 201.00 117.00 201.00 125.00 201.00 133.00
C 218.12 133.26 194.03 142.47 192.00 134.00
C 202.66 130.17 194.01 113.81 197.00 106.00
C 183.39 101.14 205.43 95.46 205.92 106.08 C 209.55 112.80 213.24 119.37 217.00 126.00
M 294.00 103.00 
C 299.79 91.97 304.74 116.58 295.00 114.00
C 296.09 101.77 277.16 101.91 276.03 113.03 C 271.26 122.50 279.46 137.85 291.07 132.07 C 308.22 124.38 292.61 143.17 282.33 137.67 C 258.68 132.48 271.66 86.77 294.00 103.00
M 342.00 137.00 
C 337.00 137.00 332.00 137.00 327.00 137.00
C 325.54 132.56 329.93 132.72 333.00 133.00
C 333.00 130.46 330.40 128.74 331.00 126.00
C 325.67 126.00 320.33 126.00 315.00 126.00
C 313.25 130.70 314.19 133.39 319.00 134.00
C 317.95 138.74 305.05 138.81 304.00 134.00
C 313.44 128.77 312.98 114.22 318.00 105.00
C 309.88 108.07 307.87 97.69 317.00 100.00 C 331.32 96.83 329.76 114.87 334.78 123.22 C 335.09 130.06 341.03 131.99 342.00 137.00
M 367.00 121.00 
C 370.43 122.56 370.70 126.57 372.77 129.23 C 373.10 134.19 380.82 131.36 379.00 137.00
C 365.13 140.81 368.92 117.41 355.00 121.00
C 355.00 125.00 355.00 129.00 355.00 133.00
C 358.15 132.65 362.30 132.54 361.00 137.00
C 355.45 138.69 335.73 135.41 350.00 133.00
C 350.00 123.67 350.00 114.33 350.00 105.00
C 338.18 104.55 349.39 96.93 356.00 100.00 C 370.83 94.82 382.55 114.42 367.00 121.00
M 395.00 105.00 
C 395.00 114.33 395.00 123.67 395.00 133.00
C 404.57 134.74 413.59 132.75 410.00 121.00
C 416.99 120.27 416.48 134.61 411.97 136.97 C 402.31 137.04 392.66 136.98 383.00 137.00
C 382.32 130.75 393.90 134.21 390.00 125.00 C 390.00 118.33 390.00 111.67 390.00 105.00
C 377.74 106.11 385.99 96.51 394.00 100.00 C 404.55 96.65 406.75 107.75 395.00 105.00
M 443.00 100.00 
C 461.65 107.43 454.72 143.60 432.93 137.07 C 412.18 131.88 419.87 93.11 443.00 100.00
M 482.00 103.00 
C 482.82 100.39 484.91 99.40 488.00 100.00
C 490.17 109.39 484.98 113.84 479.30 105.70 C 473.30 101.39 461.17 108.58 470.08 113.92 C 476.05 116.10 483.42 115.45 487.75 121.25 C 491.40 126.74 488.10 136.38 480.97 136.97 C 475.22 142.96 466.35 129.89 465.00 138.00
C 457.40 139.62 460.51 117.34 465.92 127.08 C 469.24 133.19 478.27 135.53 483.25 130.25 C 487.71 115.24 451.31 123.42 463.26 104.26 C 467.30 98.48 477.58 98.33 482.00 103.00
M 547.00 105.00 
C 547.00 114.33 547.00 123.67 547.00 133.00
C 556.57 134.74 565.59 132.75 562.00 121.00
C 568.99 120.27 568.49 134.61 563.97 136.97 C 554.31 137.04 544.66 136.98 535.00 137.00
C 534.32 130.75 545.90 134.21 542.00 125.00 C 542.00 118.33 542.00 111.67 542.00 105.00
C 529.74 106.11 537.99 96.51 546.00 100.00 C 556.55 96.65 558.75 107.75 547.00 105.00
M 592.00 105.00 
C 592.00 114.33 592.00 123.67 592.00 133.00
C 595.33 133.00 598.67 133.00 602.00 133.00
C 602.06 140.94 589.46 135.31 584.00 137.00 C 571.59 138.46 578.34 130.08 587.00 133.00
C 587.00 123.67 587.00 114.33 587.00 105.00
C 573.04 107.55 577.54 96.43 589.00 100.00 C 600.08 96.37 606.90 107.27 592.00 105.00
M 627.00 119.00 
C 629.97 115.04 630.76 109.50 632.93 104.93 C 632.34 98.51 645.64 97.42 645.00 104.00
C 637.81 105.12 642.90 112.17 642.00 117.00 C 643.37 122.62 638.53 132.58 646.00 134.00
C 644.80 139.75 636.30 135.86 632.00 137.00
C 630.76 133.22 633.98 132.46 637.00 133.00
C 636.34 125.50 638.33 116.67 636.00 110.00
C 633.00 115.30 633.14 123.95 627.97 126.97 C 621.25 125.52 622.39 115.18 619.00 110.00
C 616.70 116.76 618.64 125.49 618.00 133.00
C 621.10 132.35 624.07 133.23 623.00 137.00
C 618.69 135.83 610.21 139.80 609.00 134.00
C 616.03 133.05 611.90 124.07 613.00 119.00 C 611.10 113.63 617.29 105.14 610.00 104.00
C 609.22 97.79 621.69 98.36 621.92 104.08 C 623.09 109.23 625.83 113.84 627.00 119.00
M 684.00 137.00 
C 678.32 139.03 661.41 134.69 675.00 133.00
C 674.74 130.56 673.24 128.48 673.00 126.00
C 666.57 126.58 655.03 122.92 656.00 133.00
C 659.10 132.35 662.07 133.23 661.00 137.00
C 656.33 137.00 651.67 137.00 647.00 137.00
C 647.90 131.99 653.90 128.61 653.98 121.98 C 656.33 116.43 658.48 110.84 660.00 105.00
C 645.58 104.66 659.52 96.78 667.00 100.00 C 672.20 104.55 672.43 112.58 675.32 118.68 C 676.54 126.00 681.75 131.54 684.00 137.00
M 732.00 105.00 
C 735.26 113.60 738.51 122.14 741.00 131.00
C 743.49 126.81 744.35 121.25 746.78 116.78 C 746.94 112.19 753.57 105.06 746.00 104.00
C 745.60 94.64 769.35 102.06 755.00 106.00
C 751.15 116.55 749.39 129.51 741.92 137.92 C 732.93 132.18 732.23 116.22 728.00 106.00
C 720.57 105.48 723.23 97.56 730.00 100.00 C 737.29 96.78 741.24 106.72 732.00 105.00
M 782.00 105.00 
C 782.00 114.33 782.00 123.67 782.00 133.00
C 785.33 133.00 788.67 133.00 792.00 133.00
C 792.06 140.94 779.46 135.31 774.00 137.00 C 761.73 138.60 768.53 130.10 777.00 133.00
C 777.00 123.67 777.00 114.33 777.00 105.00
C 772.80 106.90 762.12 103.04 770.03 100.03 C 776.02 99.97 782.01 100.02 788.00 100.00 C 797.23 101.58 786.99 107.56 782.00 105.00
M 827.00 105.00 
C 821.67 105.00 816.33 105.00 811.00 105.00
C 811.00 108.67 811.00 112.33 811.00 116.00
C 814.88 116.59 819.85 116.16 819.00 111.00
C 826.06 110.81 821.87 120.61 823.00 125.00
C 820.31 125.98 817.14 123.52 819.00 121.00
C 816.73 119.28 813.66 120.27 811.00 120.00
C 811.00 124.33 811.00 128.67 811.00 133.00
C 818.38 132.74 831.58 136.07 828.00 124.00
C 836.29 122.29 835.12 141.21 826.00 137.00 C 817.67 137.00 809.33 137.00 801.00 137.00
C 799.76 133.22 802.98 132.46 806.00 133.00
C 803.61 123.89 811.35 107.17 801.00 104.00
C 801.27 96.54 812.08 101.38 817.00 100.00 C 821.92 101.15 833.09 96.57 832.00 105.00 C 834.87 114.21 824.17 114.24 827.00 105.00
M 858.00 105.00 
C 858.00 114.33 858.00 123.67 858.00 133.00
C 863.15 130.70 874.63 136.07 864.00 137.00 C 857.00 137.00 850.00 137.00 843.00 137.00
C 841.45 130.72 849.44 133.66 853.00 133.00
C 853.00 123.67 853.00 114.33 853.00 105.00
C 848.80 106.90 838.12 103.04 846.03 100.03 C 852.02 99.97 858.01 100.02 864.00 100.00 C 873.23 101.58 862.99 107.56 858.00 105.00
M 900.00 120.00 
C 903.86 124.84 904.76 132.88 912.00 134.00
C 909.79 140.41 901.00 136.19 900.23 130.77 C 898.54 125.10 894.91 119.62 888.00 121.00
C 888.00 125.00 888.00 129.00 888.00 133.00
C 902.27 135.38 882.55 138.70 877.00 137.00
C 875.76 133.22 878.98 132.46 882.00 133.00
C 884.28 124.16 882.37 114.25 883.00 105.00
C 871.32 105.21 881.13 96.72 888.00 100.00 C 901.34 94.52 915.79 113.47 900.00 120.00
M 950.00 137.00 
C 944.32 139.03 927.41 134.69 941.00 133.00
C 942.01 122.96 930.41 126.56 924.00 126.00
C 924.00 128.54 921.40 130.26 922.00 133.00
C 925.10 132.35 928.07 133.23 927.00 137.00
C 922.33 137.00 917.67 137.00 913.00 137.00
C 914.14 132.10 919.57 128.70 920.31 122.31 C 921.90 116.46 925.14 111.09 926.00 105.00
C 911.58 104.66 925.52 96.78 933.00 100.00 C 938.67 104.29 937.97 112.60 941.77 118.23 C 942.51 125.85 947.62 131.52 950.00 137.00
M 12.00 118.00 
C 16.16 123.78 25.70 125.01 31.75 129.25 C 32.71 137.91 19.09 127.12 14.31 125.69 C 4.97 123.39 0.58 116.15 12.23 113.23 C 18.97 111.97 27.04 101.85 32.92 107.08 C 27.58 113.02 18.96 114.63 12.00 118.00
M 977.00 120.00 
C 974.23 114.19 951.33 111.67 959.03 105.03 C 967.43 109.87 977.09 112.07 984.75 118.25 C 980.06 125.96 968.17 127.33 960.77 132.77 C 948.80 129.58 971.70 122.08 977.00 120.00 Z"/>
</g>
<g fill="None" fill-opacity="0.0" stroke="#FFFFFF" stroke-opacity="0.90" stroke-width="0.3"><path d="
M 69.00 94.00 
C 61.51 94.34 61.87 105.36 58.77 110.77 C 54.46 122.78 45.66 135.88 45.33 147.67 C 52.36 147.79 52.23 136.40 55.23 131.23 C 59.90 119.08 67.97 106.43 69.00 94.00 Z"/>
</g>
<g fill="None" fill-opacity="0.0" stroke="#FFFFFF" stroke-opacity="0.92" stroke-width="0.3"><path d="
M 97.00 132.00 
C 97.58 126.15 96.44 118.76 97.20 112.25 C 94.49 104.31 103.00 106.06 106.97 103.03 C 104.72 96.73 94.49 101.47 89.00 100.00 C 78.06 99.28 85.97 108.35 93.00 105.00
C 93.00 112.33 93.00 119.67 93.00 127.00 C 96.49 137.57 80.28 128.59 82.00 137.00
C 87.00 137.00 92.00 137.00 97.00 137.00 C 100.75 136.16 109.45 139.59 108.00 133.00
C 104.38 132.58 100.22 133.97 97.00 132.00 Z"/>
</g>
<g fill="None" fill-opacity="0.0" stroke="#FFFFFF" stroke-opacity="0.89" stroke-width="0.3"><path d="
M 152.00 134.00 
C 139.88 127.97 144.60 106.13 133.00 100.00 C 124.19 96.44 113.63 105.95 128.00 105.00
C 122.70 114.15 123.19 128.67 114.00 134.00
C 115.29 142.12 138.33 133.84 123.00 133.00
C 123.92 130.73 125.07 128.52 125.00 126.00
C 130.33 126.00 135.67 126.00 141.00 126.00
C 145.15 133.32 136.60 131.41 137.00 137.00
C 141.60 135.77 150.52 139.89 152.00 134.00
M 134.00 106.00 
C 134.54 111.32 137.21 116.03 139.00 121.00
C 135.00 121.00 131.00 121.00 127.00 121.00
C 129.95 116.44 129.06 108.43 134.00 106.00 Z"/>
</g>
<g fill="None" fill-opacity="0.0" stroke="#FFFFFF" stroke-opacity="0.91" stroke-width="0.3"><path d="
M 179.00 126.00 
C 175.56 120.04 172.36 114.05 168.92 108.08 C 168.55 100.98 155.28 95.35 154.00 104.00
C 161.08 105.02 156.89 113.87 158.00 119.00 C 156.90 124.07 161.03 133.05 154.00 134.00
C 154.62 141.36 178.67 135.29 165.08 132.92 C 161.00 127.27 162.98 115.71 164.00 109.00
C 171.08 118.08 173.35 133.12 184.00 138.00
C 184.00 131.67 184.00 125.33 184.00 119.00 C 185.10 113.93 180.97 104.95 188.00 104.00
C 188.11 93.57 163.81 104.15 180.00 105.00
C 179.37 111.84 181.29 119.91 179.00 126.00 Z"/>
</g>
<g fill="None" fill-opacity="0.0" stroke="#FFFFFF" stroke-opacity="0.93" stroke-width="0.3"><path d="
M 217.00 126.00 
C 213.24 119.37 209.55 112.80 205.92 106.08 C 205.43 95.46 183.39 101.14 197.00 106.00
C 194.01 113.81 202.66 130.17 192.00 134.00
C 194.03 142.47 218.12 133.26 201.00 133.00
C 201.00 125.00 201.00 117.00 201.00 109.00
C 209.63 116.98 210.74 133.35 222.00 138.00
C 222.00 131.67 222.00 125.33 222.00 119.00 C 223.10 113.93 218.97 104.95 226.00 104.00
C 226.11 93.57 201.81 104.15 218.00 105.00
C 217.37 111.84 219.29 119.91 217.00 126.00 Z"/>
</g>
<g fill="None" fill-opacity="0.0" stroke="#FFFFFF" stroke-opacity="0.90" stroke-width="0.3"><path d="
M 294.00 103.00 
C 271.66 86.77 258.68 132.48 282.33 137.67 C 292.61 143.17 308.22 124.38 291.07 132.07 C 279.46 137.85 271.26 122.50 276.03 113.03 C 277.16 101.91 296.09 101.77 295.00 114.00
C 304.74 116.58 299.79 91.97 294.00 103.00 Z"/>
</g>
<g fill="None" fill-opacity="0.0" stroke="#FFFFFF" stroke-opacity="0.89" stroke-width="0.3"><path d="
M 342.00 137.00 
C 341.03 131.99 335.09 130.06 334.78 123.22 C 329.76 114.87 331.32 96.83 317.00 100.00 C 307.87 97.69 309.88 108.07 318.00 105.00
C 312.98 114.22 313.44 128.77 304.00 134.00
C 305.05 138.81 317.95 138.74 319.00 134.00
C 314.19 133.39 313.25 130.70 315.00 126.00
C 320.33 126.00 325.67 126.00 331.00 126.00
C 330.40 128.74 333.00 130.46 333.00 133.00
C 329.93 132.72 325.54 132.56 327.00 137.00
C 332.00 137.00 337.00 137.00 342.00 137.00
M 329.00 121.00 
C 325.00 121.00 321.00 121.00 317.00 121.00
C 319.82 115.93 320.63 110.24 323.00 105.00
C 325.81 109.70 326.58 115.85 329.00 121.00 Z"/>
</g>
<g fill="None" fill-opacity="0.0" stroke="#FFFFFF" stroke-opacity="0.90" stroke-width="0.3"><path d="
M 367.00 121.00 
C 382.55 114.42 370.83 94.82 356.00 100.00 C 349.39 96.93 338.18 104.55 350.00 105.00
C 350.00 114.33 350.00 123.67 350.00 133.00
C 335.73 135.41 355.45 138.69 361.00 137.00
C 362.30 132.54 358.15 132.65 355.00 133.00
C 355.00 129.00 355.00 125.00 355.00 121.00
C 368.92 117.41 365.13 140.81 379.00 137.00
C 380.82 131.36 373.10 134.19 372.77 129.23 C 370.70 126.57 370.43 122.56 367.00 121.00
M 355.00 117.00 
C 355.00 113.00 355.00 109.00 355.00 105.00
C 360.19 105.15 369.59 103.16 368.99 111.01 C 369.09 118.20 360.02 117.08 355.00 117.00 Z"/>
</g>
<g fill="None" fill-opacity="0.0" stroke="#FFFFFF" stroke-opacity="0.90" stroke-width="0.3"><path d="
M 395.00 105.00 
C 406.75 107.75 404.55 96.65 394.00 100.00 C 385.99 96.51 377.74 106.11 390.00 105.00
C 390.00 111.67 390.00 118.33 390.00 125.00 C 393.90 134.21 382.32 130.75 383.00 137.00
C 392.66 136.98 402.31 137.04 411.97 136.97 C 416.48 134.61 416.99 120.27 410.00 121.00
C 413.59 132.75 404.57 134.74 395.00 133.00
C 395.00 123.67 395.00 114.33 395.00 105.00 Z"/>
</g>
<g fill="None" fill-opacity="0.0" stroke="#FFFFFF" stroke-opacity="0.90" stroke-width="0.3"><path d="
M 443.00 100.00 
C 419.87 93.11 412.18 131.88 432.93 137.07 C 454.72 143.60 461.65 107.43 443.00 100.00
M 442.00 105.00 
C 453.60 111.55 448.89 138.52 432.93 132.07 C 420.38 125.75 425.34 100.00 442.00 105.00 Z"/>
</g>
<g fill="None" fill-opacity="0.0" stroke="#FFFFFF" stroke-opacity="0.90" stroke-width="0.3"><path d="
M 482.00 103.00 
C 477.58 98.33 467.30 98.48 463.26 104.26 C 451.31 123.42 487.71 115.24 483.25 130.25 C 478.27 135.53 469.24 133.19 465.92 127.08 C 460.51 117.34 457.40 139.62 465.00 138.00
C 466.35 129.89 475.22 142.96 480.97 136.97 C 488.10 136.38 491.40 126.74 487.75 121.25 C 483.42 115.45 476.05 116.10 470.08 113.92 C 461.17 108.58 473.30 101.39 479.30 105.70 C 484.98 113.84 490.17 109.39 488.00 100.00
C 484.91 99.40 482.82 100.39 482.00 103.00 Z"/>
</g>
<g fill="None" fill-opacity="0.0" stroke="#FFFFFF" stroke-opacity="0.90" stroke-width="0.3"><path d="
M 547.00 105.00 
C 558.75 107.75 556.55 96.65 546.00 100.00 C 537.99 96.51 529.74 106.11 542.00 105.00
C 542.00 111.67 542.00 118.33 542.00 125.00 C 545.90 134.21 534.32 130.75 535.00 137.00
C 544.66 136.98 554.31 137.04 563.97 136.97 C 568.49 134.61 568.99 120.27 562.00 121.00
C 565.59 132.75 556.57 134.74 547.00 133.00
C 547.00 123.67 547.00 114.33 547.00 105.00 Z"/>
</g>
<g fill="None" fill-opacity="0.0" stroke="#FFFFFF" stroke-opacity="0.90" stroke-width="0.3"><path d="
M 592.00 105.00 
C 606.90 107.27 600.08 96.37 589.00 100.00 C 577.54 96.43 573.04 107.55 587.00 105.00
C 587.00 114.33 587.00 123.67 587.00 133.00
C 578.34 130.08 571.59 138.46 584.00 137.00 C 589.46 135.31 602.06 140.94 602.00 133.00
C 598.67 133.00 595.33 133.00 592.00 133.00
C 592.00 123.67 592.00 114.33 592.00 105.00 Z"/>
</g>
<g fill="None" fill-opacity="0.0" stroke="#FFFFFF" stroke-opacity="0.90" stroke-width="0.3"><path d="
M 627.00 119.00 
C 625.83 113.84 623.09 109.23 621.92 104.08 C 621.69 98.36 609.22 97.79 610.00 104.00
C 617.29 105.14 611.10 113.63 613.00 119.00 C 611.90 124.07 616.03 133.05 609.00 134.00
C 610.21 139.80 618.69 135.83 623.00 137.00
C 624.07 133.23 621.10 132.35 618.00 133.00
C 618.64 125.49 616.70 116.76 619.00 110.00
C 622.39 115.18 621.25 125.52 627.97 126.97 C 633.14 123.95 633.00 115.30 636.00 110.00
C 638.33 116.67 636.34 125.50 637.00 133.00
C 633.98 132.46 630.76 133.22 632.00 137.00
C 636.30 135.86 644.80 139.75 646.00 134.00
C 638.53 132.58 643.37 122.62 642.00 117.00 C 642.90 112.17 637.81 105.12 645.00 104.00
C 645.64 97.42 632.34 98.51 632.93 104.93 C 630.76 109.50 629.97 115.04 627.00 119.00 Z"/>
</g>
<g fill="None" fill-opacity="0.0" stroke="#FFFFFF" stroke-opacity="0.90" stroke-width="0.3"><path d="
M 684.00 137.00 
C 681.75 131.54 676.54 126.00 675.32 118.68 C 672.43 112.58 672.20 104.55 667.00 100.00 C 659.52 96.78 645.58 104.66 660.00 105.00
C 658.48 110.84 656.33 116.43 653.98 121.98 C 653.90 128.61 647.90 131.99 647.00 137.00
C 651.67 137.00 656.33 137.00 661.00 137.00
C 662.07 133.23 659.10 132.35 656.00 133.00
C 655.03 122.92 666.57 126.58 673.00 126.00
C 673.24 128.48 674.74 130.56 675.00 133.00
C 661.41 134.69 678.32 139.03 684.00 137.00
M 671.00 121.00 
C 667.33 121.00 663.67 121.00 660.00 121.00
C 660.89 115.47 663.95 110.55 665.00 105.00
C 667.81 109.70 669.41 115.57 671.00 121.00 Z"/>
</g>
<g fill="None" fill-opacity="0.0" stroke="#FFFFFF" stroke-opacity="0.89" stroke-width="0.3"><path d="
M 732.00 105.00 
C 741.24 106.72 737.29 96.78 730.00 100.00 C 723.23 97.56 720.57 105.48 728.00 106.00
C 732.23 116.22 732.93 132.18 741.92 137.92 C 749.39 129.51 751.15 116.55 755.00 106.00
C 769.35 102.06 745.60 94.64 746.00 104.00
C 753.57 105.06 746.94 112.19 746.78 116.78 C 744.35 121.25 743.49 126.81 741.00 131.00
C 738.51 122.14 735.26 113.60 732.00 105.00 Z"/>
</g>
<g fill="None" fill-opacity="0.0" stroke="#FFFFFF" stroke-opacity="0.90" stroke-width="0.3"><path d="
M 782.00 105.00 
C 786.99 107.56 797.23 101.58 788.00 100.00 C 782.01 100.02 776.02 99.97 770.03 100.03 C 762.12 103.04 772.80 106.90 777.00 105.00
C 777.00 114.33 777.00 123.67 777.00 133.00
C 768.53 130.10 761.73 138.60 774.00 137.00 C 779.46 135.31 792.06 140.94 792.00 133.00
C 788.67 133.00 785.33 133.00 782.00 133.00
C 782.00 123.67 782.00 114.33 782.00 105.00 Z"/>
</g>
<g fill="None" fill-opacity="0.0" stroke="#FFFFFF" stroke-opacity="0.91" stroke-width="0.3"><path d="
M 827.00 105.00 
C 824.17 114.24 834.87 114.21 832.00 105.00 C 833.09 96.57 821.92 101.15 817.00 100.00 C 812.08 101.38 801.27 96.54 801.00 104.00
C 811.35 107.17 803.61 123.89 806.00 133.00
C 802.98 132.46 799.76 133.22 801.00 137.00
C 809.33 137.00 817.67 137.00 826.00 137.00 C 835.12 141.21 836.29 122.29 828.00 124.00
C 831.58 136.07 818.38 132.74 811.00 133.00
C 811.00 128.67 811.00 124.33 811.00 120.00
C 813.66 120.27 816.73 119.28 819.00 121.00
C 817.14 123.52 820.31 125.98 823.00 125.00
C 821.87 120.61 826.06 110.81 819.00 111.00
C 819.85 116.16 814.88 116.59 811.00 116.00
C 811.00 112.33 811.00 108.67 811.00 105.00
C 816.33 105.00 821.67 105.00 827.00 105.00 Z"/>
</g>
<g fill="None" fill-opacity="0.0" stroke="#FFFFFF" stroke-opacity="0.90" stroke-width="0.3"><path d="
M 858.00 105.00 
C 862.99 107.56 873.23 101.58 864.00 100.00 C 858.01 100.02 852.02 99.97 846.03 100.03 C 838.12 103.04 848.80 106.90 853.00 105.00
C 853.00 114.33 853.00 123.67 853.00 133.00
C 849.44 133.66 841.45 130.72 843.00 137.00
C 850.00 137.00 857.00 137.00 864.00 137.00 C 874.63 136.07 863.15 130.70 858.00 133.00
C 858.00 123.67 858.00 114.33 858.00 105.00 Z"/>
</g>
<g fill="None" fill-opacity="0.0" stroke="#FFFFFF" stroke-opacity="0.90" stroke-width="0.3"><path d="
M 900.00 120.00 
C 915.79 113.47 901.34 94.52 888.00 100.00 C 881.13 96.72 871.32 105.21 883.00 105.00
C 882.37 114.25 884.28 124.16 882.00 133.00
C 878.98 132.46 875.76 133.22 877.00 137.00
C 882.55 138.70 902.27 135.38 888.00 133.00
C 888.00 129.00 888.00 125.00 888.00 121.00
C 894.91 119.62 898.54 125.10 900.23 130.77 C 901.00 136.19 909.79 140.41 912.00 134.00
C 904.76 132.88 903.86 124.84 900.00 120.00
M 888.00 117.00 
C 888.00 113.00 888.00 109.00 888.00 105.00
C 905.08 99.43 904.96 122.40 888.00 117.00 Z"/>
</g>
<g fill="None" fill-opacity="0.0" stroke="#FFFFFF" stroke-opacity="0.90" stroke-width="0.3"><path d="
M 950.00 137.00 
C 947.62 131.52 942.51 125.85 941.77 118.23 C 937.97 112.60 938.67 104.29 933.00 100.00 C 925.52 96.78 911.58 104.66 926.00 105.00
C 925.14 111.09 921.90 116.46 920.31 122.31 C 919.57 128.70 914.14 132.10 913.00 137.00
C 917.67 137.00 922.33 137.00 927.00 137.00
C 928.07 133.23 925.10 132.35 922.00 133.00
C 921.40 130.26 924.00 128.54 924.00 126.00
C 930.41 126.56 942.01 122.96 941.00 133.00
C 927.41 134.69 944.32 139.03 950.00 137.00
M 932.00 105.00 
C 933.30 110.43 935.69 115.54 937.00 121.00
C 933.33 121.00 929.67 121.00 926.00 121.00
C 927.89 115.74 928.73 109.44 932.00 105.00 Z"/>
</g>
<g fill="None" fill-opacity="0.0" stroke="#FFFFFF" stroke-opacity="0.89" stroke-width="0.3"><path d="
M 12.00 118.00 
C 18.96 114.63 27.58 113.02 32.92 107.08 C 27.04 101.85 18.97 111.97 12.23 113.23 C 0.58 116.15 4.97 123.39 14.31 125.69 C 19.09 127.12 32.71 137.91 31.75 129.25 C 25.70 125.01 16.16 123.78 12.00 118.00 Z"/>
</g>
<g fill="None" fill-opacity="0.0" stroke="#000000" stroke-opacity="0.03" stroke-width="0.3"><path d="
M 329.00 121.00 
C 326.58 115.85 325.81 109.70 323.00 105.00
C 320.63 110.24 319.82 115.93 317.00 121.00
C 321.00 121.00 325.00 121.00 329.00 121.00 Z"/>
</g>
<g fill="None" fill-opacity="0.0" stroke="#000000" stroke-opacity="0.02" stroke-width="0.3"><path d="
M 355.00 117.00 
C 360.02 117.08 369.09 118.20 368.99 111.01 C 369.59 103.16 360.19 105.15 355.00 105.00
C 355.00 109.00 355.00 113.00 355.00 117.00 Z"/>
</g>
<g fill="None" fill-opacity="0.0" stroke="#000000" stroke-opacity="0.01" stroke-width="0.3"><path d="
M 442.00 105.00 
C 425.34 100.00 420.38 125.75 432.93 132.07 C 448.89 138.52 453.60 111.55 442.00 105.00 Z"/>
</g>
<g fill="None" fill-opacity="0.0" stroke="#000000" stroke-opacity="0.03" stroke-width="0.3"><path d="
M 671.00 121.00 
C 669.41 115.57 667.81 109.70 665.00 105.00
C 663.95 110.55 660.89 115.47 660.00 121.00
C 663.67 121.00 667.33 121.00 671.00 121.00 Z"/>
</g>
<g fill="None" fill-opacity="0.0" stroke="#000000" stroke-opacity="0.02" stroke-width="0.3"><path d="
M 888.00 117.00 
C 904.96 122.40 905.08 99.43 888.00 105.00
C 888.00 109.00 888.00 113.00 888.00 117.00 Z"/>
</g>
<g fill="None" fill-opacity="0.0" stroke="#000000" stroke-opacity="0.03" stroke-width="0.3"><path d="
M 932.00 105.00 
C 928.73 109.44 927.89 115.74 926.00 121.00
C 929.67 121.00 933.33 121.00 937.00 121.00
C 935.69 115.54 933.30 110.43 932.00 105.00 Z"/>
</g>
<g fill="None" fill-opacity="0.0" stroke="#FFFFFF" stroke-opacity="0.89" stroke-width="0.3"><path d="
M 977.00 120.00 
C 971.70 122.08 948.80 129.58 960.77 132.77 C 968.17 127.33 980.06 125.96 984.75 118.25 C 977.09 112.07 967.43 109.87 959.03 105.03 C 951.33 111.67 974.23 114.19 977.00 120.00 Z"/>
</g>
<g fill="None" fill-opacity="0.0" stroke="#000000" stroke-opacity="0.03" stroke-width="0.3"><path d="
M 134.00 106.00 
C 129.06 108.43 129.95 116.44 127.00 121.00
C 131.00 121.00 135.00 121.00 139.00 121.00
C 137.21 116.03 134.54 111.32 134.00 106.00 Z"/>
</g>
<g fill="#000000" fill-opacity="0.00" stroke="None">
<path d="
M 0.00 249.00 
L 999.00 249.00
L 999.00 0.00
L 0.00 0.00
L 0.00 249.00
M 69.00 94.00 
C 67.97 106.43 59.90 119.08 55.23 131.23 C 52.23 136.40 52.36 147.79 45.33 147.67 C 45.66 135.88 54.46 122.78 58.77 110.77 C 61.87 105.36 61.51 94.34 69.00 94.00
M 97.00 132.00 
C 100.22 133.97 104.38 132.58 108.00 133.00
C 109.45 139.59 100.75 136.16 97.00 137.00 C 92.00 137.00 87.00 137.00 82.00 137.00
C 80.28 128.59 96.49 137.57 93.00 127.00 C 93.00 119.67 93.00 112.33 93.00 105.00
C 85.97 108.35 78.06 99.28 89.00 100.00 C 94.49 101.47 104.72 96.73 106.97 103.03 C 103.00 106.06 94.49 104.31 97.20 112.25 C 96.44 118.76 97.58 126.15 97.00 132.00
M 152.00 134.00 
C 150.52 139.89 141.60 135.77 137.00 137.00
C 136.60 131.41 145.15 133.32 141.00 126.00
C 135.67 126.00 130.33 126.00 125.00 126.00
C 125.07 128.52 123.92 130.73 123.00 133.00
C 138.33 133.84 115.29 142.12 114.00 134.00
C 123.19 128.67 122.70 114.15 128.00 105.00
C 113.63 105.95 124.19 96.44 133.00 100.00 C 144.60 106.13 139.88 127.97 152.00 134.00
M 179.00 126.00 
C 181.29 119.91 179.37 111.84 180.00 105.00
C 163.81 104.15 188.11 93.57 188.00 104.00
C 180.97 104.95 185.10 113.93 184.00 119.00 C 184.00 125.33 184.00 131.67 184.00 138.00
C 173.35 133.12 171.08 118.08 164.00 109.00
C 162.98 115.71 161.00 127.27 165.08 132.92 C 178.67 135.29 154.62 141.36 154.00 134.00
C 161.03 133.05 156.90 124.07 158.00 119.00 C 156.89 113.87 161.08 105.02 154.00 104.00
C 155.28 95.35 168.55 100.98 168.92 108.08 C 172.36 114.05 175.56 120.04 179.00 126.00
M 217.00 126.00 
C 219.29 119.91 217.37 111.84 218.00 105.00
C 201.81 104.15 226.11 93.57 226.00 104.00
C 218.97 104.95 223.10 113.93 222.00 119.00 C 222.00 125.33 222.00 131.67 222.00 138.00
C 210.74 133.35 209.63 116.98 201.00 109.00
C 201.00 117.00 201.00 125.00 201.00 133.00
C 218.12 133.26 194.03 142.47 192.00 134.00
C 202.66 130.17 194.01 113.81 197.00 106.00
C 183.39 101.14 205.43 95.46 205.92 106.08 C 209.55 112.80 213.24 119.37 217.00 126.00
M 294.00 103.00 
C 299.79 91.97 304.74 116.58 295.00 114.00
C 296.09 101.77 277.16 101.91 276.03 113.03 C 271.26 122.50 279.46 137.85 291.07 132.07 C 308.22 124.38 292.61 143.17 282.33 137.67 C 258.68 132.48 271.66 86.77 294.00 103.00
M 342.00 137.00 
C 337.00 137.00 332.00 137.00 327.00 137.00
C 325.54 132.56 329.93 132.72 333.00 133.00
C 333.00 130.46 330.40 128.74 331.00 126.00
C 325.67 126.00 320.33 126.00 315.00 126.00
C 313.25 130.70 314.19 133.39 319.00 134.00
C 317.95 138.74 305.05 138.81 304.00 134.00
C 313.44 128.77 312.98 114.22 318.00 105.00
C 309.88 108.07 307.87 97.69 317.00 100.00 C 331.32 96.83 329.76 114.87 334.78 123.22 C 335.09 130.06 341.03 131.99 342.00 137.00
M 367.00 121.00 
C 370.43 122.56 370.70 126.57 372.77 129.23 C 373.10 134.19 380.82 131.36 379.00 137.00
C 365.13 140.81 368.92 117.41 355.00 121.00
C 355.00 125.00 355.00 129.00 355.00 133.00
C 358.15 132.65 362.30 132.54 361.00 137.00
C 355.45 138.69 335.73 135.41 350.00 133.00
C 350.00 123.67 350.00 114.33 350.00 105.00
C 338.18 104.55 349.39 96.93 356.00 100.00 C 370.83 94.82 382.55 114.42 367.00 121.00
M 395.00 105.00 
C 395.00 114.33 395.00 123.67 395.00 133.00
C 404.57 134.74 413.59 132.75 410.00 121.00
C 416.99 120.27 416.48 134.61 411.97 136.97 C 402.31 137.04 392.66 136.98 383.00 137.00
C 382.32 130.75 393.90 134.21 390.00 125.00 C 390.00 118.33 390.00 111.67 390.00 105.00
C 377.74 106.11 385.99 96.51 394.00 100.00 C 404.55 96.65 406.75 107.75 395.00 105.00
M 443.00 100.00 
C 461.65 107.43 454.72 143.60 432.93 137.07 C 412.18 131.88 419.87 93.11 443.00 100.00
M 482.00 103.00 
C 482.82 100.39 484.91 99.40 488.00 100.00
C 490.17 109.39 484.98 113.84 479.30 105.70 C 473.30 101.39 461.17 108.58 470.08 113.92 C 476.05 116.10 483.42 115.45 487.75 121.25 C 491.40 126.74 488.10 136.38 480.97 136.97 C 475.22 142.96 466.35 129.89 465.00 138.00
C 457.40 139.62 460.51 117.34 465.92 127.08 C 469.24 133.19 478.27 135.53 483.25 130.25 C 487.71 115.24 451.31 123.42 463.26 104.26 C 467.30 98.48 477.58 98.33 482.00 103.00
M 547.00 105.00 
C 547.00 114.33 547.00 123.67 547.00 133.00
C 556.57 134.74 565.59 132.75 562.00 121.00
C 568.99 120.27 568.49 134.61 563.97 136.97 C 554.31 137.04 544.66 136.98 535.00 137.00
C 534.32 130.75 545.90 134.21 542.00 125.00 C 542.00 118.33 542.00 111.67 542.00 105.00
C 529.74 106.11 537.99 96.51 546.00 100.00 C 556.55 96.65 558.75 107.75 547.00 105.00
M 592.00 105.00 
C 592.00 114.33 592.00 123.67 592.00 133.00
C 595.33 133.00 598.67 133.00 602.00 133.00
C 602.06 140.94 589.46 135.31 584.00 137.00 C 571.59 138.46 578.34 130.08 587.00 133.00
C 587.00 123.67 587.00 114.33 587.00 105.00
C 573.04 107.55 577.54 96.43 589.00 100.00 C 600.08 96.37 606.90 107.27 592.00 105.00
M 627.00 119.00 
C 629.97 115.04 630.76 109.50 632.93 104.93 C 632.34 98.51 645.64 97.42 645.00 104.00
C 637.81 105.12 642.90 112.17 642.00 117.00 C 643.37 122.62 638.53 132.58 646.00 134.00
C 644.80 139.75 636.30 135.86 632.00 137.00
C 630.76 133.22 633.98 132.46 637.00 133.00
C 636.34 125.50 638.33 116.67 636.00 110.00
C 633.00 115.30 633.14 123.95 627.97 126.97 C 621.25 125.52 622.39 115.18 619.00 110.00
C 616.70 116.76 618.64 125.49 618.00 133.00
C 621.10 132.35 624.07 133.23 623.00 137.00
C 618.69 135.83 610.21 139.80 609.00 134.00
C 616.03 133.05 611.90 124.07 613.00 119.00 C 611.10 113.63 617.29 105.14 610.00 104.00
C 609.22 97.79 621.69 98.36 621.92 104.08 C 623.09 109.23 625.83 113.84 627.00 119.00
M 684.00 137.00 
C 678.32 139.03 661.41 134.69 675.00 133.00
C 674.74 130.56 673.24 128.48 673.00 126.00
C 666.57 126.58 655.03 122.92 656.00 133.00
C 659.10 132.35 662.07 133.23 661.00 137.00
C 656.33 137.00 651.67 137.00 647.00 137.00
C 647.90 131.99 653.90 128.61 653.98 121.98 C 656.33 116.43 658.48 110.84 660.00 105.00
C 645.58 104.66 659.52 96.78 667.00 100.00 C 672.20 104.55 672.43 112.58 675.32 118.68 C 676.54 126.00 681.75 131.54 684.00 137.00
M 732.00 105.00 
C 735.26 113.60 738.51 122.14 741.00 131.00
C 743.49 126.81 744.35 121.25 746.78 116.78 C 746.94 112.19 753.57 105.06 746.00 104.00
C 745.60 94.64 769.35 102.06 755.00 106.00
C 751.15 116.55 749.39 129.51 741.92 137.92 C 732.93 132.18 732.23 116.22 728.00 106.00
C 720.57 105.48 723.23 97.56 730.00 100.00 C 737.29 96.78 741.24 106.72 732.00 105.00
M 782.00 105.00 
C 782.00 114.33 782.00 123.67 782.00 133.00
C 785.33 133.00 788.67 133.00 792.00 133.00
C 792.06 140.94 779.46 135.31 774.00 137.00 C 761.73 138.60 768.53 130.10 777.00 133.00
C 777.00 123.67 777.00 114.33 777.00 105.00
C 772.80 106.90 762.12 103.04 770.03 100.03 C 776.02 99.97 782.01 100.02 788.00 100.00 C 797.23 101.58 786.99 107.56 782.00 105.00
M 827.00 105.00 
C 821.67 105.00 816.33 105.00 811.00 105.00
C 811.00 108.67 811.00 112.33 811.00 116.00
C 814.88 116.59 819.85 116.16 819.00 111.00
C 826.06 110.81 821.87 120.61 823.00 125.00
C 820.31 125.98 817.14 123.52 819.00 121.00
C 816.73 119.28 813.66 120.27 811.00 120.00
C 811.00 124.33 811.00 128.67 811.00 133.00
C 818.38 132.74 831.58 136.07 828.00 124.00
C 836.29 122.29 835.12 141.21 826.00 137.00 C 817.67 137.00 809.33 137.00 801.00 137.00
C 799.76 133.22 802.98 132.46 806.00 133.00
C 803.61 123.89 811.35 107.17 801.00 104.00
C 801.27 96.54 812.08 101.38 817.00 100.00 C 821.92 101.15 833.09 96.57 832.00 105.00 C 834.87 114.21 824.17 114.24 827.00 105.00
M 858.00 105.00 
C 858.00 114.33 858.00 123.67 858.00 133.00
C 863.15 130.70 874.63 136.07 864.00 137.00 C 857.00 137.00 850.00 137.00 843.00 137.00
C 841.45 130.72 849.44 133.66 853.00 133.00
C 853.00 123.67 853.00 114.33 853.00 105.00
C 848.80 106.90 838.12 103.04 846.03 100.03 C 852.02 99.97 858.01 100.02 864.00 100.00 C 873.23 101.58 862.99 107.56 858.00 105.00
M 900.00 120.00 
C 903.86 124.84 904.76 132.88 912.00 134.00
C 909.79 140.41 901.00 136.19 900.23 130.77 C 898.54 125.10 894.91 119.62 888.00 121.00
C 888.00 125.00 888.00 129.00 888.00 133.00
C 902.27 135.38 882.55 138.70 877.00 137.00
C 875.76 133.22 878.98 132.46 882.00 133.00
C 884.28 124.16 882.37 114.25 883.00 105.00
C 871.32 105.21 881.13 96.72 888.00 100.00 C 901.34 94.52 915.79 113.47 900.00 120.00
M 950.00 137.00 
C 944.32 139.03 927.41 134.69 941.00 133.00
C 942.01 122.96 930.41 126.56 924.00 126.00
C 924.00 128.54 921.40 130.26 922.00 133.00
C 925.10 132.35 928.07 133.23 927.00 137.00
C 922.33 137.00 917.67 137.00 913.00 137.00
C 914.14 132.10 919.57 128.70 920.31 122.31 C 921.90 116.46 925.14 111.09 926.00 105.00
C 911.58 104.66 925.52 96.78 933.00 100.00 C 938.67 104.29 937.97 112.60 941.77 118.23 C 942.51 125.85 947.62 131.52 950.00 137.00
M 12.00 118.00 
C 16.16 123.78 25.70 125.01 31.75 129.25 C 32.71 137.91 19.09 127.12 14.31 125.69 C 4.97 123.39 0.58 116.15 12.23 113.23 C 18.97 111.97 27.04 101.85 32.92 107.08 C 27.58 113.02 18.96 114.63 12.00 118.00
M 977.00 120.00 
C 974.23 114.19 951.33 111.67 959.03 105.03 C 967.43 109.87 977.09 112.07 984.75 118.25 C 980.06 125.96 968.17 127.33 960.77 132.77 C 948.80 129.58 971.70 122.08 977.00 120.00 Z"/>
</g>
<g fill="#FFFFFF" fill-opacity="0.90" stroke="None">
<path d="
M 69.00 94.00 
C 61.51 94.34 61.87 105.36 58.77 110.77 C 54.46 122.78 45.66 135.88 45.33 147.67 C 52.36 147.79 52.23 136.40 55.23 131.23 C 59.90 119.08 67.97 106.43 69.00 94.00 Z"/>
</g>
<g fill="#FFFFFF" fill-opacity="0.92" stroke="None">
<path d="
M 97.00 132.00 
C 97.58 126.15 96.44 118.76 97.20 112.25 C 94.49 104.31 103.00 106.06 106.97 103.03 C 104.72 96.73 94.49 101.47 89.00 100.00 C 78.06 99.28 85.97 108.35 93.00 105.00
C 93.00 112.33 93.00 119.67 93.00 127.00 C 96.49 137.57 80.28 128.59 82.00 137.00
C 87.00 137.00 92.00 137.00 97.00 137.00 C 100.75 136.16 109.45 139.59 108.00 133.00
C 104.38 132.58 100.22 133.97 97.00 132.00 Z"/>
</g>
<g fill="#FFFFFF" fill-opacity="0.89" stroke="None">
<path d="
M 152.00 134.00 
C 139.88 127.97 144.60 106.13 133.00 100.00 C 124.19 96.44 113.63 105.95 128.00 105.00
C 122.70 114.15 123.19 128.67 114.00 134.00
C 115.29 142.12 138.33 133.84 123.00 133.00
C 123.92 130.73 125.07 128.52 125.00 126.00
C 130.33 126.00 135.67 126.00 141.00 126.00
C 145.15 133.32 136.60 131.41 137.00 137.00
C 141.60 135.77 150.52 139.89 152.00 134.00
M 134.00 106.00 
C 134.54 111.32 137.21 116.03 139.00 121.00
C 135.00 121.00 131.00 121.00 127.00 121.00
C 129.95 116.44 129.06 108.43 134.00 106.00 Z"/>
</g>
<g fill="#FFFFFF" fill-opacity="0.91" stroke="None">
<path d="
M 179.00 126.00 
C 175.56 120.04 172.36 114.05 168.92 108.08 C 168.55 100.98 155.28 95.35 154.00 104.00
C 161.08 105.02 156.89 113.87 158.00 119.00 C 156.90 124.07 161.03 133.05 154.00 134.00
C 154.62 141.36 178.67 135.29 165.08 132.92 C 161.00 127.27 162.98 115.71 164.00 109.00
C 171.08 118.08 173.35 133.12 184.00 138.00
C 184.00 131.67 184.00 125.33 184.00 119.00 C 185.10 113.93 180.97 104.95 188.00 104.00
C 188.11 93.57 163.81 104.15 180.00 105.00
C 179.37 111.84 181.29 119.91 179.00 126.00 Z"/>
</g>
<g fill="#FFFFFF" fill-opacity="0.93" stroke="None">
<path d="
M 217.00 126.00 
C 213.24 119.37 209.55 112.80 205.92 106.08 C 205.43 95.46 183.39 101.14 197.00 106.00
C 194.01 113.81 202.66 130.17 192.00 134.00
C 194.03 142.47 218.12 133.26 201.00 133.00
C 201.00 125.00 201.00 117.00 201.00 109.00
C 209.63 116.98 210.74 133.35 222.00 138.00
C 222.00 131.67 222.00 125.33 222.00 119.00 C 223.10 113.93 218.97 104.95 226.00 104.00
C 226.11 93.57 201.81 104.15 218.00 105.00
C 217.37 111.84 219.29 119.91 217.00 126.00 Z"/>
</g>
<g fill="#FFFFFF" fill-opacity="0.90" stroke="None">
<path d="
M 294.00 103.00 
C 271.66 86.77 258.68 132.48 282.33 137.67 C 292.61 143.17 308.22 124.38 291.07 132.07 C 279.46 137.85 271.26 122.50 276.03 113.03 C 277.16 101.91 296.09 101.77 295.00 114.00
C 304.74 116.58 299.79 91.97 294.00 103.00 Z"/>
</g>
<g fill="#FFFFFF" fill-opacity="0.89" stroke="None">
<path d="
M 342.00 137.00 
C 341.03 131.99 335.09 130.06 334.78 123.22 C 329.76 114.87 331.32 96.83 317.00 100.00 C 307.87 97.69 309.88 108.07 318.00 105.00
C 312.98 114.22 313.44 128.77 304.00 134.00
C 305.05 138.81 317.95 138.74 319.00 134.00
C 314.19 133.39 313.25 130.70 315.00 126.00
C 320.33 126.00 325.67 126.00 331.00 126.00
C 330.40 128.74 333.00 130.46 333.00 133.00
C 329.93 132.72 325.54 132.56 327.00 137.00
C 332.00 137.00 337.00 137.00 342.00 137.00
M 329.00 121.00 
C 325.00 121.00 321.00 121.00 317.00 121.00
C 319.82 115.93 320.63 110.24 323.00 105.00
C 325.81 109.70 326.58 115.85 329.00 121.00 Z"/>
</g>
<g fill="#FFFFFF" fill-opacity="0.90" stroke="None">
<path d="
M 367.00 121.00 
C 382.55 114.42 370.83 94.82 356.00 100.00 C 349.39 96.93 338.18 104.55 350.00 105.00
C 350.00 114.33 350.00 123.67 350.00 133.00
C 335.73 135.41 355.45 138.69 361.00 137.00
C 362.30 132.54 358.15 132.65 355.00 133.00
C 355.00 129.00 355.00 125.00 355.00 121.00
C 368.92 117.41 365.13 140.81 379.00 137.00
C 380.82 131.36 373.10 134.19 372.77 129.23 C 370.70 126.57 370.43 122.56 367.00 121.00
M 355.00 117.00 
C 355.00 113.00 355.00 109.00 355.00 105.00
C 360.19 105.15 369.59 103.16 368.99 111.01 C 369.09 118.20 360.02 117.08 355.00 117.00 Z"/>
</g>
<g fill="#FFFFFF" fill-opacity="0.90" stroke="None">
<path d="
M 395.00 105.00 
C 406.75 107.75 404.55 96.65 394.00 100.00 C 385.99 96.51 377.74 106.11 390.00 105.00
C 390.00 111.67 390.00 118.33 390.00 125.00 C 393.90 134.21 382.32 130.75 383.00 137.00
C 392.66 136.98 402.31 137.04 411.97 136.97 C 416.48 134.61 416.99 120.27 410.00 121.00
C 413.59 132.75 404.57 134.74 395.00 133.00
C 395.00 123.67 395.00 114.33 395.00 105.00 Z"/>
</g>
<g fill="#FFFFFF" fill-opacity="0.90" stroke="None">
<path d="
M 443.00 100.00 
C 419.87 93.11 412.18 131.88 432.93 137.07 C 454.72 143.60 461.65 107.43 443.00 100.00
M 442.00 105.00 
C 453.60 111.55 448.89 138.52 432.93 132.07 C 420.38 125.75 425.34 100.00 442.00 105.00 Z"/>
</g>
<g fill="#FFFFFF" fill-opacity="0.90" stroke="None">
<path d="
M 482.00 103.00 
C 477.58 98.33 467.30 98.48 463.26 104.26 C 451.31 123.42 487.71 115.24 483.25 130.25 C 478.27 135.53 469.24 133.19 465.92 127.08 C 460.51 117.34 457.40 139.62 465.00 138.00
C 466.35 129.89 475.22 142.96 480.97 136.97 C 488.10 136.38 491.40 126.74 487.75 121.25 C 483.42 115.45 476.05 116.10 470.08 113.92 C 461.17 108.58 473.30 101.39 479.30 105.70 C 484.98 113.84 490.17 109.39 488.00 100.00
C 484.91 99.40 482.82 100.39 482.00 103.00 Z"/>
</g>
<g fill="#FFFFFF" fill-opacity="0.90" stroke="None">
<path d="
M 547.00 105.00 
C 558.75 107.75 556.55 96.65 546.00 100.00 C 537.99 96.51 529.74 106.11 542.00 105.00
C 542.00 111.67 542.00 118.33 542.00 125.00 C 545.90 134.21 534.32 130.75 535.00 137.00
C 544.66 136.98 554.31 137.04 563.97 136.97 C 568.49 134.61 568.99 120.27 562.00 121.00
C 565.59 132.75 556.57 134.74 547.00 133.00
C 547.00 123.67 547.00 114.33 547.00 105.00 Z"/>
</g>
<g fill="#FFFFFF" fill-opacity="0.90" stroke="None">
<path d="
M 592.00 105.00 
C 606.90 107.27 600.08 96.37 589.00 100.00 C 577.54 96.43 573.04 107.55 587.00 105.00
C 587.00 114.33 587.00 123.67 587.00 133.00
C 578.34 130.08 571.59 138.46 584.00 137.00 C 589.46 135.31 602.06 140.94 602.00 133.00
C 598.67 133.00 595.33 133.00 592.00 133.00
C 592.00 123.67 592.00 114.33 592.00 105.00 Z"/>
</g>
<g fill="#FFFFFF" fill-opacity="0.90" stroke="None">
<path d="
M 627.00 119.00 
C 625.83 113.84 623.09 109.23 621.92 104.08 C 621.69 98.36 609.22 97.79 610.00 104.00
C 617.29 105.14 611.10 113.63 613.00 119.00 C 611.90 124.07 616.03 133.05 609.00 134.00
C 610.21 139.80 618.69 135.83 623.00 137.00
C 624.07 133.23 621.10 132.35 618.00 133.00
C 618.64 125.49 616.70 116.76 619.00 110.00
C 622.39 115.18 621.25 125.52 627.97 126.97 C 633.14 123.95 633.00 115.30 636.00 110.00
C 638.33 116.67 636.34 125.50 637.00 133.00
C 633.98 132.46 630.76 133.22 632.00 137.00
C 636.30 135.86 644.80 139.75 646.00 134.00
C 638.53 132.58 643.37 122.62 642.00 117.00 C 642.90 112.17 637.81 105.12 645.00 104.00
C 645.64 97.42 632.34 98.51 632.93 104.93 C 630.76 109.50 629.97 115.04 627.00 119.00 Z"/>
</g>
<g fill="#FFFFFF" fill-opacity="0.90" stroke="None">
<path d="
M 684.00 137.00 
C 681.75 131.54 676.54 126.00 675.32 118.68 C 672.43 112.58 672.20 104.55 667.00 100.00 C 659.52 96.78 645.58 104.66 660.00 105.00
C 658.48 110.84 656.33 116.43 653.98 121.98 C 653.90 128.61 647.90 131.99 647.00 137.00
C 651.67 137.00 656.33 137.00 661.00 137.00
C 662.07 133.23 659.10 132.35 656.00 133.00
C 655.03 122.92 666.57 126.58 673.00 126.00
C 673.24 128.48 674.74 130.56 675.00 133.00
C 661.41 134.69 678.32 139.03 684.00 137.00
M 671.00 121.00 
C 667.33 121.00 663.67 121.00 660.00 121.00
C 660.89 115.47 663.95 110.55 665.00 105.00
C 667.81 109.70 669.41 115.57 671.00 121.00 Z"/>
</g>
<g fill="#FFFFFF" fill-opacity="0.89" stroke="None">
<path d="
M 732.00 105.00 
C 741.24 106.72 737.29 96.78 730.00 100.00 C 723.23 97.56 720.57 105.48 728.00 106.00
C 732.23 116.22 732.93 132.18 741.92 137.92 C 749.39 129.51 751.15 116.55 755.00 106.00
C 769.35 102.06 745.60 94.64 746.00 104.00
C 753.57 105.06 746.94 112.19 746.78 116.78 C 744.35 121.25 743.49 126.81 741.00 131.00
C 738.51 122.14 735.26 113.60 732.00 105.00 Z"/>
</g>
<g fill="#FFFFFF" fill-opacity="0.90" stroke="None">
<path d="
M 782.00 105.00 
C 786.99 107.56 797.23 101.58 788.00 100.00 C 782.01 100.02 776.02 99.97 770.03 100.03 C 762.12 103.04 772.80 106.90 777.00 105.00
C 777.00 114.33 777.00 123.67 777.00 133.00
C 768.53 130.10 761.73 138.60 774.00 137.00 C 779.46 135.31 792.06 140.94 792.00 133.00
C 788.67 133.00 785.33 133.00 782.00 133.00
C 782.00 123.67 782.00 114.33 782.00 105.00 Z"/>
</g>
<g fill="#FFFFFF" fill-opacity="0.91" stroke="None">
<path d="
M 827.00 105.00 
C 824.17 114.24 834.87 114.21 832.00 105.00 C 833.09 96.57 821.92 101.15 817.00 100.00 C 812.08 101.38 801.27 96.54 801.00 104.00
C 811.35 107.17 803.61 123.89 806.00 133.00
C 802.98 132.46 799.76 133.22 801.00 137.00
C 809.33 137.00 817.67 137.00 826.00 137.00 C 835.12 141.21 836.29 122.29 828.00 124.00
C 831.58 136.07 818.38 132.74 811.00 133.00
C 811.00 128.67 811.00 124.33 811.00 120.00
C 813.66 120.27 816.73 119.28 819.00 121.00
C 817.14 123.52 820.31 125.98 823.00 125.00
C 821.87 120.61 826.06 110.81 819.00 111.00
C 819.85 116.16 814.88 116.59 811.00 116.00
C 811.00 112.33 811.00 108.67 811.00 105.00
C 816.33 105.00 821.67 105.00 827.00 105.00 Z"/>
</g>
<g fill="#FFFFFF" fill-opacity="0.90" stroke="None">
<path d="
M 858.00 105.00 
C 862.99 107.56 873.23 101.58 864.00 100.00 C 858.01 100.02 852.02 99.97 846.03 100.03 C 838.12 103.04 848.80 106.90 853.00 105.00
C 853.00 114.33 853.00 123.67 853.00 133.00
C 849.44 133.66 841.45 130.72 843.00 137.00
C 850.00 137.00 857.00 137.00 864.00 137.00 C 874.63 136.07 863.15 130.70 858.00 133.00
C 858.00 123.67 858.00 114.33 858.00 105.00 Z"/>
</g>
<g fill="#FFFFFF" fill-opacity="0.90" stroke="None">
<path d="
M 900.00 120.00 
C 915.79 113.47 901.34 94.52 888.00 100.00 C 881.13 96.72 871.32 105.21 883.00 105.00
C 882.37 114.25 884.28 124.16 882.00 133.00
C 878.98 132.46 875.76 133.22 877.00 137.00
C 882.55 138.70 902.27 135.38 888.00 133.00
C 888.00 129.00 888.00 125.00 888.00 121.00
C 894.91 119.62 898.54 125.10 900.23 130.77 C 901.00 136.19 909.79 140.41 912.00 134.00
C 904.76 132.88 903.86 124.84 900.00 120.00
M 888.00 117.00 
C 888.00 113.00 888.00 109.00 888.00 105.00
C 905.08 99.43 904.96 122.40 888.00 117.00 Z"/>
</g>
<g fill="#FFFFFF" fill-opacity="0.90" stroke="None">
<path d="
M 950.00 137.00 
C 947.62 131.52 942.51 125.85 941.77 118.23 C 937.97 112.60 938.67 104.29 933.00 100.00 C 925.52 96.78 911.58 104.66 926.00 105.00
C 925.14 111.09 921.90 116.46 920.31 122.31 C 919.57 128.70 914.14 132.10 913.00 137.00
C 917.67 137.00 922.33 137.00 927.00 137.00
C 928.07 133.23 925.10 132.35 922.00 133.00
C 921.40 130.26 924.00 128.54 924.00 126.00
C 930.41 126.56 942.01 122.96 941.00 133.00
C 927.41 134.69 944.32 139.03 950.00 137.00
M 932.00 105.00 
C 933.30 110.43 935.69 115.54 937.00 121.00
C 933.33 121.00 929.67 121.00 926.00 121.00
C 927.89 115.74 928.73 109.44 932.00 105.00 Z"/>
</g>
<g fill="#FFFFFF" fill-opacity="0.89" stroke="None">
<path d="
M 12.00 118.00 
C 18.96 114.63 27.58 113.02 32.92 107.08 C 27.04 101.85 18.97 111.97 12.23 113.23 C 0.58 116.15 4.97 123.39 14.31 125.69 C 19.09 127.12 32.71 137.91 31.75 129.25 C 25.70 125.01 16.16 123.78 12.00 118.00 Z"/>
</g>
<g fill="#000000" fill-opacity="0.03" stroke="None">
<path d="
M 329.00 121.00 
C 326.58 115.85 325.81 109.70 323.00 105.00
C 320.63 110.24 319.82 115.93 317.00 121.00
C 321.00 121.00 325.00 121.00 329.00 121.00 Z"/>
</g>
<g fill="#000000" fill-opacity="0.02" stroke="None">
<path d="
M 355.00 117.00 
C 360.02 117.08 369.09 118.20 368.99 111.01 C 369.59 103.16 360.19 105.15 355.00 105.00
C 355.00 109.00 355.00 113.00 355.00 117.00 Z"/>
</g>
<g fill="#000000" fill-opacity="0.01" stroke="None">
<path d="
M 442.00 105.00 
C 425.34 100.00 420.38 125.75 432.93 132.07 C 448.89 138.52 453.60 111.55 442.00 105.00 Z"/>
</g>
<g fill="#000000" fill-opacity="0.03" stroke="None">
<path d="
M 671.00 121.00 
C 669.41 115.57 667.81 109.70 665.00 105.00
C 663.95 110.55 660.89 115.47 660.00 121.00
C 663.67 121.00 667.33 121.00 671.00 121.00 Z"/>
</g>
<g fill="#000000" fill-opacity="0.02" stroke="None">
<path d="
M 888.00 117.00 
C 904.96 122.40 905.08 99.43 888.00 105.00
C 888.00 109.00 888.00 113.00 888.00 117.00 Z"/>
</g>
<g fill="#000000" fill-opacity="0.03" stroke="None">
<path d="
M 932.00 105.00 
C 928.73 109.44 927.89 115.74 926.00 121.00
C 929.67 121.00 933.33 121.00 937.00 121.00
C 935.69 115.54 933.30 110.43 932.00 105.00 Z"/>
</g>
<g fill="#FFFFFF" fill-opacity="0.89" stroke="None">
<path d="
M 977.00 120.00 
C 971.70 122.08 948.80 129.58 960.77 132.77 C 968.17 127.33 980.06 125.96 984.75 118.25 C 977.09 112.07 967.43 109.87 959.03 105.03 C 951.33 111.67 974.23 114.19 977.00 120.00 Z"/>
</g>
<g fill="#000000" fill-opacity="0.03" stroke="None">
<path d="
M 134.00 106.00 
C 129.06 108.43 129.95 116.44 127.00 121.00
C 131.00 121.00 135.00 121.00 139.00 121.00
C 137.21 116.03 134.54 111.32 134.00 106.00 Z"/>
</g>
</svg>